<svg id="Layer_1" data-name="Layer 1" xmlns="http://www.w3.org/2000/svg" width="1231.75" height="277.89" viewBox="0 0 1231.75 277.89">
  <defs>
    <style>
      .cls-1 {
        fill: #fefefe;
      }

      .cls-2 {
        fill: #030303;
      }

      .cls-3 {
        fill: #fcfcfc;
      }
    </style>
  </defs>
  <g>
    <path class="cls-1" d="M868.89,103.88c-9.33-1.47-18.62-3.26-27.95-4.73-7.76-1.22-15.56-2.14-23.33-3.24-2.49-.36-3.64.7-4.73,3-6.21,13-12.62,25.85-19,38.71-1.11,2.21-1.78,4.81-3.83,6.45-1.5-1-.92-2.08-1-3-.41-7.12,1.18-14.12,1.06-21.27-.13-8.25-1-16.57.81-24.8.22-1,.83-2.64-1.32-3.1-5.71-1.23-11.23-1.06-16.6,1.5q-20.47,9.78-41,19.51c-2.37,1.14-3.62,1.88-4.27-2.1-1-5.82-2.07-11.81-6.65-16.47-7.58-7.73-17.25-9.87-27.3-10.26a190.94,190.94,0,0,0-36.59,1.73,292.22,292.22,0,0,0-44,10.78c-7.35,2.33-9.76,6.62-10.24,13.32-.15,2.06.83,5.42-1.54,5.61-1.89.15-2.17-3.26-2.51-5.51-2-13.16-9.23-21.36-22.59-24.16-19.6-4.1-39-1.42-58.33,1.56-11,1.69-21.54,5.54-32.42,8.52,1.19-7.75,1.18-8.42-1.28-9.93-5.45-3.34-10.95-6.59-16.47-9.8a8.8,8.8,0,0,0-6.15-1c-10.8,1.72-21.65,3.17-32.47,4.76-8.22,1.21-16.42,2.5-24.64,3.72-9.67,1.44-19.31,3.2-29,4.12-4.92.47-9.38,1.16-13.33,5.26-.38-4.76-2.53-6.29-6.61-6.19A78.38,78.38,0,0,0,341,89c-11.79,2.51-23.82,3.78-35.5,6.89-3.16.85-5.05,2-5.65,5.7-.68,4.15-1.16,8.36-2.07,12.46-5.15,23.17-8.39,46.69-12.95,70-.63,3.23.79,7.64-3.75,10.48a34.23,34.23,0,0,1,0-5q1.89-11,4-22c4.61-24.09,9.28-48.16,13.85-72.25.5-2.63-.33-5.09-3.15-5.91-3.73-1.09-7.41-2.56-11.44-2.29C268.55,88,253,91.24,237.31,93.39c-8.36,1.15-13.89,4.17-13.48,13.53-2.27-.28-2.76-1.79-3.66-2.92-8.86-11.24-19.79-19.54-34.39-21-23.24-2.26-42.95,6.17-59.35,22.17A190.34,190.34,0,0,0,84.6,166.36C71.42,196.75,63.13,228,69.1,261.55a94.89,94.89,0,0,0,25.74,50.26c21.92,22.53,60.8,28.66,88.34,11.22,2.8-1.77,4-1.23,5.43,1.3,2.13,3.86,4.36,7.67,6.65,11.44,3.4,5.58,4.69,5.89,11.37,4.3,14.71-3.5,29.33-7.35,44-11,4.18-1,6.84-2.37,7.27-6.31.35-3.25.74-6.5,1.12-9.75,1.13-9.59,2-19.2,3.13-28.79,1.25-11.07,2.8-22.1,3.78-33.18.3-3.4,1.62-4.44,4.54-4.16s4.39,2.19,3.5,5c-1.83,5.81-1.71,11.9-2.84,17.82-2.51,13.27-4.72,26.6-6.78,39.95-.62,4-2.41,7.94-.81,12.13s3,8.51,4.66,12.72c3.39,8.72,3.11,7.26,11.16,5.91,12.66-2.13,25.35-4.25,37.94-6.82,6.4-1.3,14-.78,16.93-9.19.68-1.95,2.22.17,2.87,1,3,3.9,6,7.85,8.81,11.88,1.81,2.58,4.27,4,7.22,3.3,10.35-2.53,21-3.17,31.46-4.76,17.57-2.66,35.18-5.05,52.71-8,4.38-.74,9.8-3.48,12.64-2.22,3.32,1.48,4.78,7.47,6.71,11.65,1.14,2.46,2.26,2.41,4.53,1.51,9.68-3.86,19.49-7.38,29.18-11.22,2-.79,4.25-1.59,4.7-4.48,1.79-11.43,3.6-22.85,5.12-34.32.43-3.24,0-6.85,2.19-10.72,4.39,9.83,8.42,19,12.59,28.13,3.91,8.55,7.31,17.34,12.34,25.35,1.74,2.77,3.19,4.05,6.55,1.44,9.21-7.19,19.23-13.32,27.91-21.25,2-1.81,3.94-4.18,7.26-4.33a14.32,14.32,0,0,1-.26,3.15c-2.46,7.55-2.59,14.35,3,21.19,2.42,3,3.95,3.7,7.21,2.84,17-4.53,33-11.83,49.05-18.87,1.53-.67,2.88-1.5,3-3.49.62-7.7,1.3-15.39,2-23.09.48-5.29,1-10.58,1.67-17.34,1.23,2.44,1.83,3.39,2.22,4.42Q647,302.94,659,328.79c2.25,4.85,2.59,5,6.93,1.6,4.55-3.59,9.06-7.23,13.47-11,12-10.19,24.35-19.87,36.87-29.36,2.61-2,3.12-3.9,1.48-7.05-10.89-21-21.5-42.18-32.38-63.2-1.49-2.88-1.08-4.73,1-6.8a458.12,458.12,0,0,0,39.24-43c.57-.72,1.09-2,2.17-1.53.85.36,1.05,1.51,1.21,2.57.63,4.15,1.33,8.3,2.18,12.42Q737,211.61,743,239.77a14.58,14.58,0,0,1-1.72,10.47c-7.48,14.31-14.65,28.78-21.78,43.27-5.44,11.06-13.26,21.76-6.54,35.12a1,1,0,0,1,0,.49c-.23,3.63,1.42,4.9,5,4.69,13.34-.8,26.69-1.73,40.05-1.89,5.81-.07,8.84-2.12,11.3-7.27,22.38-46.78,45-93.43,67.52-140.17,11.87-24.67,23.54-49.44,35.29-74.17C874.6,105.24,874.2,104.72,868.89,103.88ZM651.42,163.27c.15-1.23.44-2.52.59-3.81.31-2.86,1.84-4.29,4.68-3.14A28.29,28.29,0,0,0,660,157c5.33,1.52,7.24,6.29,4.05,10.87-3.72,5.34-9.45,8.44-14.73,13.18C648.29,174.19,650.72,168.82,651.42,163.27ZM525.16,158.9c.12-1.71,1.51-3,3.82-3.09a18.77,18.77,0,0,1,7.15,1.2c2.91,1.12,4,3.25,2,6.17A42.24,42.24,0,0,1,523.28,177C522.11,170.34,524.76,164.76,525.16,158.9Zm-60.43,8.67c-.83,2.4.94,6.67-4.65,6.48a6.72,6.72,0,0,1-2.36-.44c-11.17-6-22.36-1.76-33.55-.21-2.28.32-6,2.68-6.54,0-.78-3.68,3.67-2.71,5.94-3.12,12.52-2.27,25.09-4.26,37.63-6.43C464.44,163.33,465.79,164.53,464.73,167.57ZM195,254.62c-4.25-1.85-8.52-3.61-12.93-5.11-3.39-1.14-5.75-.46-8,2a58,58,0,0,1-18,13.12A32.87,32.87,0,0,1,140.76,268c-8.7-.32-14.16-5.93-12.61-14.59,5.19-28.86,18.44-53.07,42.38-70.77,5.84-4.32,12.2-7.45,19.78-6.76,3.26.3,5.18-1.78,7.22-3.74,6-5.73,11.39-12,18.24-17.23-1.24,14.89-4.63,29.06-7,43.4q-3.33,20.58-6.79,41.13c-.74,4.41-1.84,8.75-2.67,13.14C198.84,255.38,197.31,255.61,195,254.62ZM445.09,240.8c-5.87-1.94-11.49-.27-17.2.41-7.07.84-14,2.92-21.16,2.73-2-.06-5.24,1.28-4.94-2.77.23-3.16-.39-7,4.37-7.65,3.95-.52,7.91-.94,11.85-1.45,10.16-1.33,20.29-3,30.6-2.28,2.72.2,5.65.23,5.16,3.8C453.57,240.7,451.09,242.78,445.09,240.8Zm129.48,15.51c-5.08-9.83-10.09-19.69-15.17-29.52-1.08-2.08-1.51-4.21.27-6a333.55,333.55,0,0,0,26.88-29.37c.48-.61,1.36-.89,3.41-2.16l-12.12,70.1C575.86,259.32,575.28,257.67,574.57,256.31Z" transform="translate(-67.12 -72.91)"/>
    <path class="cls-1" d="M1003.86,211.11c-5.43,3-9.54,7-13.55,10.89-11,10.63-22.76,20.35-36.19,27.47-8,4.21-10.16,10.35-11.21,18-2.55,18.49-5.93,36.84-9.61,55.12-.55,2.74-.74,5.56-1,8.23-.47,4-2.38,5.22-5.63,6.31q-18.72,6.31-37.31,13c-3.19,1.15-4.75.86-5.79-2.65-2.25-7.64-5.29-15.07-7.23-22.77-1.33-5.29,1.26-10.58,2.13-15.82,2.53-15.39,5.67-30.67,8.53-46,2.59-13.9,5.19-27.81,7.68-41.74,2.18-12.18,4.18-24.4,6.33-36.59,2.06-11.7,4.23-23.38,6.33-35.07,2.57-14.23,5.18-28.46,7.62-42.71.9-5.26,2.41-9,8.39-11.17,16-5.88,31.84-10.94,49.05-11.94,15.17-.89,30.11-2.08,44.61,3.94,15.11,6.28,18.37,15,19.9,29.07.43,4,.1,8.17.08,12.92-1.39-.66-1.26-2.5-1.29-3.92-.11-5.49-.11-10.94-1.28-16.39-2-9.19-7.24-15.54-15.63-19.48a54.5,54.5,0,0,0-20.67-5.45c-25.44-1.17-50.15,2.21-73.78,12.3-4.89,2.08-7.14,5.11-8,10.25-10.17,57.55-20.33,115.1-31.14,172.54-2.52,13.42-4.82,26.88-7.25,40.32a9.41,9.41,0,0,0,0,4.94c2.49,6.9,4.4,14,6.59,21,.89,2.82,2.72,3.63,5.4,2.74,12.5-4.13,24.87-8.63,37.25-13.09,3.22-1.16,3.74-4,4.2-6.81,3.6-22,7.94-43.92,11.35-66,.74-4.8,2.28-9.13,6.79-11.62,17.36-9.59,32.12-22.56,46.73-35.72a19.58,19.58,0,0,1,3.11-2.5C1000.68,211.91,1002.06,210,1003.86,211.11Z" transform="translate(-67.12 -72.91)"/>
    <path class="cls-1" d="M1128.38,295.32c-12.12,14.08-24.17,28.17-42,35.49-29.19,12-54.15,6-73.4-20.67-5.5-7.62-6.37-17.22-8.86-26a115.06,115.06,0,0,1-3.92-35.57c.41-10.55.58-21.3,3.55-31.65.46-1.61.26-3.42.35-5.62,1.55,1.18,1.32,3.35.93,5.09-2.31,10-2.78,20.11-3.37,30.22a115.42,115.42,0,0,0,2.31,29.75,222.2,222.2,0,0,0,6.45,25.14,40.47,40.47,0,0,0,13.52,19.38c6.81,5.42,13.85,10.64,22.41,12.77,18.09,4.5,34.76-.15,50.1-9.62,14.09-8.71,24.48-21.44,34.59-34.3.93-1.18,1.77-2.43,2.74-3.57,1.16-1.36,2.34-3.27,4.34-2.58C1133.77,287.33,1131.49,291.71,1128.38,295.32Z" transform="translate(-67.12 -72.91)"/>
    <path class="cls-1" d="M1298.88,126.9c-1.19,5.88-1.9,11.9-3.67,17.6-8,25.81-23.23,46.87-43.57,64.45-14.3,12.37-30.37,21.87-47.4,29.88-2.38,1.12-3.25,2.67-3.52,5.34-1.57,15.85-4.58,31.48-7.34,47.15-1.37,7.77-3.16,15.47-4.54,23.24-.58,3.29-2,5.37-5.35,6.21-14.12,3.59-28.21,7.26-42.33,10.85-2.54.65-4-.77-5.07-2.91a28.34,28.34,0,0,1-2.23-19.93c1.81-7.89,3.15-15.87,4.88-24.93,1.6,1,.74,3,.45,4.53-1.61,8.18-2.72,16.43-4.43,24.58-1,4.61-.1,8.88,1.72,13.13,1.34,3.13,3.31,4.31,6.66,3.53,13.15-3,26.15-6.69,39.22-10,3.57-.91,4.81-3.65,5.5-7,4.62-22.34,8.66-44.8,11.58-67.43.53-4.15,2.29-6.49,6-8.3,21.7-10.6,42-23.31,58.33-41.39,15.4-17,27.33-36.08,32.11-58.95.41-2,.52-4,.77-5.94C1296.82,129.13,1296.35,127,1298.88,126.9Z" transform="translate(-67.12 -72.91)"/>
    <path class="cls-1" d="M1037.27,129.78c5-6.56,9.38-12.68,14.22-18.37,11.85-14,24.79-26.6,42.1-33.84,12.91-5.39,25.78-6.78,38.86-.57a35.17,35.17,0,0,1,12.82,10c7.4,9.5,16.18,18,22,28.69.21.38.73.6,1.35,1.09,1.5-5.3,3-10.41,3.19-15.71a8.13,8.13,0,0,1,5.9-8.11c11.15-3.92,22.06-8.69,33.87-10.49,5.83-.88,11.64-1.94,17.5-2.43,12.61-1,25.28-1.64,37.62,2,17.45,5.13,30.19,18,31.23,36.33,0,.7.18,1.29.94,1.52-2.25,0-2.1-1.87-2.25-3.2-2.51-22.3-21.6-33.71-41.7-35.31a159,159,0,0,0-74.19,12c-4.66,1.92-7.46,4.46-7.75,9.75a37.06,37.06,0,0,1-2.46,11.19c-1.27,3.33-2.61,3.57-4.89.88s-4-6.11-6.29-9c-5.32-6.84-10.94-13.44-16.69-19.9-10.71-12-29.19-15.24-46.23-8.46-15,6-27.22,15.85-38,27.66a250.65,250.65,0,0,0-17.5,21.8C1040,128.51,1039.08,130.34,1037.27,129.78Z" transform="translate(-67.12 -72.91)"/>
    <path class="cls-2" d="M1297.94,118.39c-1-18.29-13.78-31.2-31.23-36.33-12.34-3.62-25-3-37.62-2-5.86.49-11.67,1.55-17.5,2.43-11.81,1.8-22.72,6.57-33.87,10.49a8.13,8.13,0,0,0-5.9,8.11c-.14,5.3-1.69,10.41-3.19,15.71-.62-.49-1.14-.71-1.35-1.09-5.83-10.72-14.61-19.19-22-28.69a35.17,35.17,0,0,0-12.82-10c-13.08-6.21-26-4.82-38.86.57-17.31,7.24-30.25,19.89-42.1,33.84-4.84,5.69-9.18,11.81-14.22,18.37l-.34.45c0-.19,0-.39,0-.58,0-4.75.35-8.87-.08-12.92-1.53-14.07-4.79-22.79-19.9-29.07-14.5-6-29.44-4.83-44.61-3.94-17.21,1-33.1,6.06-49.05,11.94-6,2.2-7.49,5.91-8.39,11.17-2.44,14.25-5,28.48-7.62,42.71-2.1,11.69-4.27,23.37-6.33,35.07-2.15,12.19-4.15,24.41-6.33,36.59-2.49,13.93-5.09,27.84-7.68,41.74-2.86,15.34-6,30.62-8.53,46-.87,5.24-3.46,10.53-2.13,15.82,1.94,7.7,5,15.13,7.23,22.77,1,3.51,2.6,3.8,5.79,2.65q18.57-6.75,37.31-13c3.25-1.09,5.16-2.31,5.63-6.31.31-2.67.5-5.49,1-8.23,3.68-18.28,7.06-36.63,9.61-55.12,1.05-7.68,3.26-13.82,11.21-18,13.43-7.12,25.21-16.84,36.19-27.47,4-3.88,8.12-7.87,13.55-10.89l.23-.13c0,.1,0,.19,0,.28-.09,2.2.11,4-.35,5.62-3,10.35-3.14,21.1-3.55,31.65a115.06,115.06,0,0,0,3.92,35.57c2.49,8.82,3.36,18.42,8.86,26,19.25,26.67,44.21,32.64,73.4,20.67,17.85-7.32,29.9-21.41,42-35.49,3.11-3.61,5.39-8,9.72-11.78.27-.24.55-.48.84-.71-.07.34-.13.68-.2,1-1.73,9.06-3.07,17-4.88,24.93a28.34,28.34,0,0,0,2.23,19.93c1.08,2.14,2.53,3.56,5.07,2.91,14.12-3.59,28.21-7.26,42.33-10.85,3.3-.84,4.77-2.92,5.35-6.21,1.38-7.77,3.17-15.47,4.54-23.24,2.76-15.67,5.77-31.3,7.34-47.15.27-2.67,1.14-4.22,3.52-5.34,17-8,33.1-17.51,47.4-29.88,20.34-17.58,35.52-38.64,43.57-64.45,1.77-5.7,2.48-11.72,3.67-17.6v-7C1298.12,119.68,1298,119.09,1297.94,118.39Zm-70,44.07a30.7,30.7,0,0,1-12.38,10.78c1.7-6.5,3.45-13,5.07-19.53.41-1.65,1.35-2.18,2.79-1.79,2.4.65,4.86,1.6,5.35,4.35C1229.12,158.3,1229.31,160.47,1227.92,162.46Zm-149.79,74.67c-5.16,1.49-6.55.56-6.09-6.48,1.26-8.48,2.54-18.74,10.86-26.32a30.17,30.17,0,0,1,12.26-6.74c3.54-1,4.49.67,4.65,2.91C1100.54,211.09,1091.21,233.34,1078.13,237.13ZM959,174.41c1.33-6.49,2.76-13,4.17-19.47,5.76,2.15,9.34,6.09,8.69,10.58-1,7.11-7.2,9.39-12.89,12.95A23.9,23.9,0,0,1,959,174.41Z" transform="translate(-67.12 -72.91)"/>
    <path class="cls-2" d="M868.89,103.88c-9.33-1.47-18.62-3.26-27.95-4.73-7.76-1.22-15.56-2.14-23.33-3.24-2.49-.36-3.64.7-4.73,3-6.21,13-12.62,25.85-19,38.71-1.11,2.21-1.78,4.81-3.83,6.45-1.5-1-.92-2.08-1-3-.41-7.12,1.18-14.12,1.06-21.27-.13-8.25-1-16.57.81-24.8.22-1,.83-2.64-1.32-3.1-5.71-1.23-11.23-1.06-16.6,1.5q-20.47,9.78-41,19.51c-2.37,1.14-3.62,1.88-4.27-2.1-1-5.82-2.07-11.81-6.65-16.47-7.58-7.73-17.25-9.87-27.3-10.26a190.94,190.94,0,0,0-36.59,1.73,292.22,292.22,0,0,0-44,10.78c-7.35,2.33-9.76,6.62-10.24,13.32-.15,2.06.83,5.42-1.54,5.61-1.89.15-2.17-3.26-2.51-5.51-2-13.16-9.23-21.36-22.59-24.16-19.6-4.1-39-1.42-58.33,1.56-11,1.69-21.54,5.54-32.42,8.52,1.19-7.75,1.18-8.42-1.28-9.93-5.45-3.34-10.95-6.59-16.47-9.8a8.8,8.8,0,0,0-6.15-1c-10.8,1.72-21.65,3.17-32.47,4.76-8.22,1.21-16.42,2.5-24.64,3.72-9.67,1.44-19.31,3.2-29,4.12-4.92.47-9.38,1.16-13.33,5.26-.38-4.76-2.53-6.29-6.61-6.19A78.38,78.38,0,0,0,341,89c-11.79,2.51-23.82,3.78-35.5,6.89-3.16.85-5.05,2-5.65,5.7-.68,4.15-1.16,8.36-2.07,12.46-5.15,23.17-8.39,46.69-12.95,70-.63,3.23.79,7.64-3.75,10.48a34.23,34.23,0,0,1,0-5q1.89-11,4-22c4.61-24.09,9.28-48.16,13.85-72.25.5-2.63-.33-5.09-3.15-5.91-3.73-1.09-7.41-2.56-11.44-2.29C268.55,88,253,91.24,237.31,93.39c-8.36,1.15-13.89,4.17-13.48,13.53-2.27-.28-2.76-1.79-3.66-2.92-8.86-11.24-19.79-19.54-34.39-21-23.24-2.26-42.95,6.17-59.35,22.17A190.34,190.34,0,0,0,84.6,166.36C71.42,196.75,63.13,228,69.1,261.55a94.89,94.89,0,0,0,25.74,50.26c21.92,22.53,60.8,28.66,88.34,11.22,2.8-1.77,4-1.23,5.43,1.3,2.13,3.86,4.36,7.67,6.65,11.44,3.4,5.58,4.69,5.89,11.37,4.3,14.71-3.5,29.33-7.35,44-11,4.18-1,6.84-2.37,7.27-6.31.35-3.25.74-6.5,1.12-9.75,1.13-9.59,2-19.2,3.13-28.79,1.25-11.07,2.8-22.1,3.78-33.18.3-3.4,1.62-4.44,4.54-4.16s4.39,2.19,3.5,5c-1.83,5.81-1.71,11.9-2.84,17.82-2.51,13.27-4.72,26.6-6.78,39.95-.62,4-2.41,7.94-.81,12.13s3,8.51,4.66,12.72c3.39,8.72,3.11,7.26,11.16,5.91,12.66-2.13,25.35-4.25,37.94-6.82,6.4-1.3,14-.78,16.93-9.19.68-1.95,2.22.17,2.87,1,3,3.9,6,7.85,8.81,11.88,1.81,2.58,4.27,4,7.22,3.3,10.35-2.53,21-3.17,31.46-4.76,17.57-2.66,35.18-5.05,52.71-8,4.38-.74,9.8-3.48,12.64-2.22,3.32,1.48,4.78,7.47,6.71,11.65,1.14,2.46,2.26,2.41,4.53,1.51,9.68-3.86,19.49-7.38,29.18-11.22,2-.79,4.25-1.59,4.7-4.48,1.79-11.43,3.6-22.85,5.12-34.32.43-3.24,0-6.85,2.19-10.72,4.39,9.83,8.42,19,12.59,28.13,3.91,8.55,7.31,17.34,12.34,25.35,1.74,2.77,3.19,4.05,6.55,1.44,9.21-7.19,19.23-13.32,27.91-21.25,2-1.81,3.94-4.18,7.26-4.33a14.32,14.32,0,0,1-.26,3.15c-2.46,7.55-2.59,14.35,3,21.19,2.42,3,3.95,3.7,7.21,2.84,17-4.53,33-11.83,49.05-18.87,1.53-.67,2.88-1.5,3-3.49.62-7.7,1.3-15.39,2-23.09.48-5.29,1-10.58,1.67-17.34,1.23,2.44,1.83,3.39,2.22,4.42Q647,302.94,659,328.79c2.25,4.85,2.59,5,6.93,1.6,4.55-3.59,9.06-7.23,13.47-11,12-10.19,24.35-19.87,36.87-29.36,2.61-2,3.12-3.9,1.48-7.05-10.89-21-21.5-42.18-32.38-63.2-1.49-2.88-1.08-4.73,1-6.8a458.12,458.12,0,0,0,39.24-43c.57-.72,1.09-2,2.17-1.53.85.36,1.05,1.51,1.21,2.57.63,4.15,1.33,8.3,2.18,12.42Q737,211.61,743,239.77a14.58,14.58,0,0,1-1.72,10.47c-7.48,14.31-14.65,28.78-21.78,43.27-5.44,11.06-13.26,21.76-6.54,35.12a1,1,0,0,1,0,.49c-.23,3.63,1.42,4.9,5,4.69,13.34-.8,26.69-1.73,40.05-1.89,5.81-.07,8.84-2.12,11.3-7.27,22.38-46.78,45-93.43,67.52-140.17,11.87-24.67,23.54-49.44,35.29-74.17C874.6,105.24,874.2,104.72,868.89,103.88ZM651.42,163.27c.15-1.23.44-2.52.59-3.81.31-2.86,1.84-4.29,4.68-3.14A28.29,28.29,0,0,0,660,157c5.33,1.52,7.24,6.29,4.05,10.87-3.72,5.34-9.45,8.44-14.73,13.18C648.29,174.19,650.72,168.82,651.42,163.27ZM525.16,158.9c.12-1.71,1.51-3,3.82-3.09a18.77,18.77,0,0,1,7.15,1.2c2.91,1.12,4,3.25,2,6.17A42.24,42.24,0,0,1,523.28,177C522.11,170.34,524.76,164.76,525.16,158.9Zm-60.43,8.67c-.83,2.4.94,6.67-4.65,6.48a6.72,6.72,0,0,1-2.36-.44c-11.17-6-22.36-1.76-33.55-.21-2.28.32-6,2.68-6.54,0-.78-3.68,3.67-2.71,5.94-3.12,12.52-2.27,25.09-4.26,37.63-6.43C464.44,163.33,465.79,164.53,464.73,167.57ZM195,254.62c-4.25-1.85-8.52-3.61-12.93-5.11-3.39-1.14-5.75-.46-8,2a58,58,0,0,1-18,13.12A32.87,32.87,0,0,1,140.76,268c-8.7-.32-14.16-5.93-12.61-14.59,5.19-28.86,18.44-53.07,42.38-70.77,5.84-4.32,12.2-7.45,19.78-6.76,3.26.3,5.18-1.78,7.22-3.74,6-5.73,11.39-12,18.24-17.23-1.24,14.89-4.63,29.06-7,43.4q-3.33,20.58-6.79,41.13c-.74,4.41-1.84,8.75-2.67,13.14C198.84,255.38,197.31,255.61,195,254.62ZM445.09,240.8c-5.87-1.94-11.49-.27-17.2.41-7.07.84-14,2.92-21.16,2.73-2-.06-5.24,1.28-4.94-2.77.23-3.16-.39-7,4.37-7.65,3.95-.52,7.91-.94,11.85-1.45,10.16-1.33,20.29-3,30.6-2.28,2.72.2,5.65.23,5.16,3.8C453.57,240.7,451.09,242.78,445.09,240.8Zm129.48,15.51c-5.08-9.83-10.09-19.69-15.17-29.52-1.08-2.08-1.51-4.21.27-6a333.55,333.55,0,0,0,26.88-29.37c.48-.61,1.36-.89,3.41-2.16l-12.12,70.1C575.86,259.32,575.28,257.67,574.57,256.31Z" transform="translate(-67.12 -72.91)"/>
    <path class="cls-3" d="M1144.92,111.5c-10-21.23-27.77-28.6-49.85-20.77a65.9,65.9,0,0,0-20.6,11.9c-12.83,10.82-23.29,23.73-32.34,37.76C1023,170.11,1013.49,203,1011.06,238c-1.2,17.24.78,34.26,9,49.9,9.47,18.12,25,24.63,44.71,19.1,10.66-3,19.79-8.75,27.7-16.23,39.62-37.41,57.14-84.51,60.08-131.67C1152.3,138.62,1151.1,124.6,1144.92,111.5ZM1072,230.65c1.26-8.48,2.54-18.74,10.86-26.32a30.17,30.17,0,0,1,12.26-6.74c3.54-1,4.49.67,4.65,2.91.73,10.59-8.6,32.84-21.68,36.63C1073,238.62,1071.58,237.69,1072,230.65Z" transform="translate(-67.12 -72.91)"/>
    <path class="cls-3" d="M1280.94,112.81c-.85-12.94-7-20.14-19.71-21.65a152.43,152.43,0,0,0-71.56,8.75,8.32,8.32,0,0,0-5.94,7.08q-12.35,67.13-25,134.2c-4,21.51-8.28,43-12.6,65.35,9.25-3,17.58-5.75,26-8.33,2.49-.77,3.3-2.43,3.77-4.69,4.05-19.51,8-39,11.05-58.74,1.15-7.35,4.47-13,11.08-16.75,25.58-14.66,46.9-34.31,65.79-56.71C1275.55,147.36,1282.17,131.46,1280.94,112.81Zm-60.33,40.9c.41-1.65,1.35-2.18,2.79-1.79,2.4.65,4.86,1.6,5.35,4.35.37,2,.56,4.2-.83,6.19a30.7,30.7,0,0,1-12.38,10.78C1217.24,166.74,1219,160.24,1220.61,153.71Z" transform="translate(-67.12 -72.91)"/>
    <path class="cls-3" d="M1024.82,117.29c-.75-14.41-6.91-21.43-21-23.13-23.37-2.82-46,.69-68.27,8-5.43,1.79-7.63,5-8.65,10.63-9,48.84-18.19,97.63-27.37,146.43-3.13,16.62-6.34,33.22-9.64,50.46,8.62-2.78,16.46-5.51,24.43-7.78,3.36-.95,4.84-2.7,5.45-6,3.64-19.59,7.61-39.12,11.06-58.74,1.25-7.07,4.33-11.94,10.65-15.72C969,205,992.87,184.23,1012,158.3,1020.84,146.21,1025.62,132.55,1024.82,117.29ZM959,174.41c1.33-6.49,2.76-13,4.17-19.47,5.76,2.15,9.34,6.09,8.69,10.58-1,7.11-7.2,9.39-12.89,12.95A23.9,23.9,0,0,1,959,174.41Z" transform="translate(-67.12 -72.91)"/>
    <path class="cls-3" d="M280.64,228.82A256.93,256.93,0,0,0,249,234.47c-2.59.66-3.44,2.25-3.77,4.57-2.7,18.92-5.49,37.84-8.1,56.78C236,304.23,236,304.3,227.75,306s-16.56,3.58-24.84,5.42c-5.67,1.25-5.7,1.27-4.74-4.32q6.54-37.83,13.11-75.65c6.26-36.19,12.84-72.32,17.78-108.73.78-5.76,2.13-11.44,2.94-17.19.42-3,1.81-4.2,4.79-4.59,11.38-1.46,22.76-3,34.08-4.84,4.57-.74,5,.84,4,4.65-6.83,25.69-12.61,51.63-18.2,77.61-1.6,7.47-2.74,15-4.14,22.55-.55,2.92.55,4,3.48,3.71,9.26-.95,18.53-1.89,27.81-2.7,4.79-.41,6.45-3.49,7.1-7.61,2.07-13.13,4.06-26.28,6.22-39.39,2.64-16.07,5.43-32.11,8.15-48.16.51-3,2.16-4.42,5.32-4.87,12.34-1.79,24.66-3.78,37-5.83,4-.67,5.62-.31,4.63,4.62-9.31,46.77-18.29,93.61-27.53,140.4-4,20.21-8.19,40.38-11.41,60.73-.56,3.58-2.2,4.66-5.46,5-10.4,1.22-20.82,2.45-31,4.91-3.94,1-4.75.07-4.12-4.11,3.73-24.66,7.09-49.37,10.63-74.06C283.64,230.77,284,228.32,280.64,228.82Z" transform="translate(-67.12 -72.91)"/>
    <path class="cls-3" d="M543,194.35c3.15-2.38,5.55-5.72,8.33-8.6,11.44-11.86,22.93-23.68,30.72-38.46,5.55-10.54,10.15-21.3,9-33.65-1.08-11.74-7.94-19.19-18.64-20.62-30.55-4.1-59.54,1.91-87.79,13.09a5.62,5.62,0,0,0-3.95,5c-1.37,9.54-3,19-4.53,28.56q-10.86,68.7-21.68,137.41c-1.62,10.3-3.19,20.6-4.88,31.56,11-3.29,21.29-6.4,31.59-9.4,2.48-.72,2.65-2.5,3-4.57q5.49-36.22,11.15-72.43c.31-2-.18-5.14,2.44-5.4,2.8-.28,2.5,3.09,3.23,4.88,10.55,25.78,21,51.63,31.42,77.45,2,4.86,2.45,5,6.45,1.52,9.22-7.91,18.25-16.05,27.73-23.64,4.06-3.24,4.49-6.08,2.35-10.55-9.43-19.77-18.42-39.74-28-59.44C538.34,201.86,537.9,198.16,543,194.35ZM523.28,177c-1.17-6.63,1.48-12.21,1.88-18.07.12-1.71,1.51-3,3.82-3.09a18.77,18.77,0,0,1,7.15,1.2c2.91,1.12,4,3.25,2,6.17A42.24,42.24,0,0,1,523.28,177Z" transform="translate(-67.12 -72.91)"/>
    <path class="cls-3" d="M690.79,174.64c10.29-11,18.86-23.18,24.77-37.12,3.09-7.28,4.91-14.79,4.38-22.77-.83-12.41-7-19.92-18.19-21.54-4.6-.67-9.27-1-13.91-1.26-25.94-1.35-50.42,5-74.36,14.17a6.12,6.12,0,0,0-4.22,5.46Q606.19,131.79,603,152q-9.22,58.59-18.49,117.18c-2.06,13.06-4.1,26.13-6.22,39.66,10.82-3.25,21-6.3,31.14-9.33a4.57,4.57,0,0,0,3.51-4.25q3-21,6.08-41.94c1.65-10.84,3.45-21.65,5.25-32.47.25-1.56.22-3.77,2.29-3.95,2.28-.2,2,2.2,2.64,3.61Q631.65,226.2,634,232c9.73,23.95,19.45,47.9,29.38,72.37,11-9.42,21.33-18.57,32-27.26,4-3.27,4.35-6.07,2.2-10.56-9.87-20.64-19.4-41.45-29.11-62.17-1.18-2.52-2-4.51.54-7C676.45,189.93,683.63,182.29,690.79,174.64ZM649.34,181c-1.05-6.83,1.38-12.2,2.08-17.75.15-1.23.44-2.52.59-3.81.31-2.86,1.84-4.29,4.68-3.14A28.29,28.29,0,0,0,660,157c5.33,1.52,7.24,6.29,4.05,10.87C660.35,173.18,654.62,176.28,649.34,181Z" transform="translate(-67.12 -72.91)"/>
    <path class="cls-3" d="M454.93,91.68c-.7,11.79-1.44,23.57-2.06,35.36-.17,3.2-1.39,4.66-4.8,4.94-12.77,1.05-25.51,2.52-38.28,3.54-4.11.33-6,2.28-6.59,6-2,12.13-4.16,24.25-6.12,36.39-.88,5.46-.62,5.7,5,4.84,11.18-1.7,22.36-3.4,33.49-5.4,3-.54,3.76-.12,3.48,3-.85,9.27-2.3,18.51-2.18,27.85,0,2.8-1.73,2.64-3.57,2.91-14.81,2.2-29.59,4.54-44.42,6.59-3.43.47-4.94,1.85-5.35,5.24q-1.71,14.36-3.83,28.67c-.54,3.6,1,3.92,3.9,3.5,13.83-2,27.67-3.88,41.5-5.91,5.5-.8,6.08-.29,5.63,5.28-1,12.27-2.07,24.54-2.77,36.82-.22,3.87-1.33,5.47-5.4,6-27.6,3.28-54.78,9.15-82.13,13.95-5.26.92-5.15-1-4.47-4.85q7.31-41.24,14.45-82.5,10.38-59.69,20.7-119.37c.73-4.29,1.39-7.47,7-8.31,23.19-3.47,46.27-7.57,69.41-11.35C455.34,83.52,455.36,83.64,454.93,91.68Z" transform="translate(-67.12 -72.91)"/>
    <path class="cls-3" d="M175.22,261.5c2.42,7.9,4.63,15,6.75,22.1.42,1.43.53,2.93-.81,4.15-11.27,10.24-22.92,19.94-38.43,23-28.24,5.56-51-7.85-60.57-36-8.29-24.39-7.37-49.24-1-73.76,9.4-36.29,27-68.13,54.56-93.94C149,94.58,165,88.24,183.44,89.58c16.05,1.17,26.4,11.36,35.06,23.72,1.64,2.34.51,4.33-1.25,6.19-8.44,9-17.24,17.6-24.51,27.59-1.28,1.77-2.42,1.76-4,.34-4.73-4.18-10.17-4.22-16-2.63-14.31,3.94-24.87,13.09-33.71,24.44a120.13,120.13,0,0,0-25.77,71.36,53.89,53.89,0,0,0,2.19,15.75c5.13,19.3,29.12,28.17,45.71,17A79,79,0,0,0,175.22,261.5Z" transform="translate(-67.12 -72.91)"/>
    <path class="cls-3" d="M737.46,307c-3.33,0-6.71-.36-10,.09-4.46.61-5-.7-3.13-4.44,4.5-8.88,8.84-17.83,13.25-26.75,4.55-9.23,8.95-18.53,13.7-27.65a16.57,16.57,0,0,0,1.56-11.52c-7.18-35.67-14.28-71.35-21.55-107-1-4.91-.42-7.91,4.91-10,9-3.45,17.64-7.69,26.31-11.84,3.73-1.78,5.19-1.52,5.41,3.1,1.23,25.4,2.68,50.79,4.13,76.18.09,1.56-.75,3.94,1.14,4.48,2.36.67,2.73-2.07,3.44-3.51q18.95-38.1,37.68-76.3c3.73-7.61,3.61-7.62,11.89-6.18,6.55,1.13,13.1,2.44,19.7,3.08,4.2.41,4.57,1.54,2.8,5.12q-23,46.35-45.8,92.81c-15.52,31.55-31.12,63.07-46.39,94.73-2.29,4.74-5.21,6.42-10.11,5.88-3-.33-6-.34-8.95-.49Z" transform="translate(-67.12 -72.91)"/>
    <path class="cls-2" d="M1105.62,180.15c-3.69-8.29-10.9-11.23-19.29-7.88a30.17,30.17,0,0,0-11.57,8.48A67.79,67.79,0,0,0,1059.25,211c-1.92,8.65-3,17.42-.11,26.12,3.53,10.79,12.47,14.38,22.47,9.05a25.52,25.52,0,0,0,4.94-3.34c13.81-12.29,20-28.15,21.66-45.32C1108.51,191,1108,185.42,1105.62,180.15Zm-27.49,57c-5.16,1.49-6.55.56-6.09-6.48,1.26-8.48,2.54-18.74,10.86-26.32a30.17,30.17,0,0,1,12.26-6.74c3.54-1,4.49.67,4.65,2.91C1100.54,211.09,1091.21,233.34,1078.13,237.13Z" transform="translate(-67.12 -72.91)"/>
    <path class="cls-2" d="M1230.92,129.89l-1.28-.07c-7.28-.17-13,1.35-18.74,3.24-4.07,1.35-6.09,4-6.8,8.24-2.66,16-5.41,32.07-8.51,48-.76,3.93.68,4.55,3.68,3.95,21.16-4.23,38-15.43,48.7-33.95C1257.05,143.67,1249,130.74,1230.92,129.89Zm-3,32.57a30.7,30.7,0,0,1-12.38,10.78c1.7-6.5,3.45-13,5.07-19.53.41-1.65,1.35-2.18,2.79-1.79,2.4.65,4.86,1.6,5.35,4.35C1229.12,158.3,1229.31,160.47,1227.92,162.46Z" transform="translate(-67.12 -72.91)"/>
    <path class="cls-2" d="M979,133.61c-2.44-.45-4.94-.62-7.41-.93-6.34-.16-12.09,2.06-17.92,4-3.44,1.17-5,3.43-5.62,6.85-2.85,16.19-5.7,32.38-8.74,48.53-.76,4,.14,5,4.23,4.26,19.37-3.57,33.83-14.68,45.89-29.49a25,25,0,0,0,4.5-9.38C997.46,144.35,992.3,136.07,979,133.61Zm-7.13,31.91c-1,7.11-7.2,9.39-12.89,12.95a23.9,23.9,0,0,1,0-4.06c1.33-6.49,2.76-13,4.17-19.47C968.91,157.09,972.49,161,971.84,165.52Z" transform="translate(-67.12 -72.91)"/>
    <path class="cls-2" d="M539.4,137.9c-10.14-1.85-19.3,1.27-27.81,6.67-1.7,1.08-2.11,2.87-2.44,4.71q-3.72,20.58-7.48,41.14c-.27,1.43-1.2,3.08,0,4.23,1.45,1.42,3.1.14,4.58-.46a89.34,89.34,0,0,0,34.26-25c4.75-5.5,8-11.8,8.5-17.74C549,143.57,545.8,139.06,539.4,137.9Zm-1.24,25.28A42.24,42.24,0,0,1,523.28,177c-1.17-6.63,1.48-12.21,1.88-18.07.12-1.71,1.51-3,3.82-3.09a18.77,18.77,0,0,1,7.15,1.2C539,158.13,540.17,160.26,538.16,163.18Z" transform="translate(-67.12 -72.91)"/>
    <path class="cls-2" d="M664.29,137.39A44.79,44.79,0,0,0,642,143.53a7.76,7.76,0,0,0-4.06,5.8c-2.49,13.88-5.14,27.72-7.68,41.59-.81,4.39.11,5.21,4.38,3.69A80,80,0,0,0,668,172c4.21-4.76,8-9.76,9.62-16.07C680.26,145.56,674.38,137.45,664.29,137.39Zm-.22,30.45c-3.72,5.34-9.45,8.44-14.73,13.18-1.05-6.83,1.38-12.2,2.08-17.75.15-1.23.44-2.52.59-3.81.31-2.86,1.84-4.29,4.68-3.14A28.29,28.29,0,0,0,660,157C665.35,158.49,667.26,163.26,664.07,167.84Z" transform="translate(-67.12 -72.91)"/>
  </g>
</svg>
