<svg id="Layer_1" data-name="Layer 1" xmlns="http://www.w3.org/2000/svg" width="635.58" height="656.09" viewBox="0 0 635.58 656.09">
  <defs>
    <style>
      .cls-1 {
        fill: #fefefe;
      }

      .cls-2 {
        fill: #040203;
      }

      .cls-3 {
        fill: #0f3e07;
      }

      .cls-4 {
        fill: #090507;
      }

      .cls-5 {
        fill: #060404;
      }

      .cls-6 {
        fill: #092304;
      }

      .cls-7 {
        fill: #0d2503;
      }

      .cls-8 {
        fill: #2d0e0e;
      }

      .cls-9 {
        fill: #cc0b00;
      }

      .cls-10 {
        fill: #fe1e02;
      }

      .cls-11 {
        fill: #1f1f1f;
      }

      .cls-12 {
        fill: #870e00;
      }

      .cls-13 {
        fill: #fe3e2d;
      }

      .cls-14 {
        fill: #680b02;
      }

      .cls-15 {
        fill: #cd0b02;
      }

      .cls-16 {
        fill: #0a2403;
      }

      .cls-17 {
        fill: #670b03;
      }

      .cls-18 {
        fill: #fb3d2c;
      }

      .cls-19 {
        fill: #670b02;
      }

      .cls-20 {
        fill: #eb0e01;
      }

      .cls-21 {
        fill: #ea0f01;
      }

      .cls-22 {
        fill: #fd3e2d;
      }

      .cls-23 {
        fill: #ea0f02;
      }

      .cls-24 {
        fill: #fc1d02;
      }

      .cls-25 {
        fill: #ea0e01;
      }

      .cls-26 {
        fill: #fed1e5;
      }

      .cls-27 {
        fill: #e90f01;
      }

      .cls-28 {
        fill: #fcd0e1;
      }

      .cls-29 {
        fill: #fbd1e4;
      }

      .cls-30 {
        fill: #b71101;
      }

      .cls-31 {
        fill: #fedfda;
      }

      .cls-32 {
        fill: #fbdedb;
      }

      .cls-33 {
        fill: #a6160a;
      }

      .cls-34 {
        fill: #4d0802;
      }

      .cls-35 {
        fill: #fd1d02;
      }

      .cls-36 {
        fill: #a6120c;
      }

      .cls-37 {
        fill: #fad1e3;
      }

      .cls-38 {
        fill: #fad0e2;
      }

      .cls-39 {
        fill: #e41400;
      }

      .cls-40 {
        fill: #fe1500;
      }

      .cls-41 {
        fill: #fcddd9;
      }

      .cls-42 {
        fill: #faddd8;
      }
    </style>
  </defs>
  <g>
    <path class="cls-1" d="M685.44,691.6c-2.72,6.73-7.75,12.8-13.53,13.38-8.21.84-14.47-2.57-18.87-9.33-4.81-7.4-3.78-15-.45-22.69,4.19-9.6,9.3-18.94,12.2-28.91,2.43-8.36,4-17.21,2.56-26.37-.85-5.45-2-11.08-1.29-16.74a202.66,202.66,0,0,0-7.82-27c-3-8.44-7.43-16.07-11-24.14-4.89-11-12.35-20.35-18.59-30.44-6.47-10.48-14.77-19.88-23-29.15l-1.56,0c-3.53,10.39-8.95,20-13,30.16-3.71,9.35-9.39,18-14.82,26.34-11.42,17.52-23.8,34.57-39.16,49.06-6.16,5.81-13.07,10.7-19.72,15.93-17.34,13.63-36.24,24.59-56.11,33.83a235.78,235.78,0,0,1-44.94,15.37c-.48.12-1,.21-1.45.33h-.06l-3.31.44-.14,0q-2.91.39-5.82.82l-4.08.62c-1.43.23-2.85.47-4.27.72l-2.36.44c-1.1.21-2.21.42-3.31.65l-.7.14-2.6.54h-.05a311.24,311.24,0,0,1-54.54.51c-12.42-.87-24.9-1-37.2-3.23-9.63-1.73-19.54-3-28.79-5.45-13.52-3.53-27.58-4.53-40.78-9.32-8.59-3.11-16.74-7.42-25.66-9.57a51.7,51.7,0,0,1-18.24-8.7c-8.86-6.43-17.34-13.42-25.7-20.5-6.83-5.78-12.86-12.44-19.93-18-10.34-8.18-18.05-19-26.69-28.82C91.9,541.16,84,514.5,74.24,488.8c-6.32-16.71-10-34.26-14-51.64-.52-2.23-.2-4.64-.28-7,0,0,0,0,0-.06-1.59-3.26-.22-6.78-.83-10.13a.5.5,0,0,1-.18-.74A162.33,162.33,0,0,1,54,393.05a4,4,0,0,1-1-2.93,22.87,22.87,0,0,1-.36-3.72h0a47.65,47.65,0,0,1,2.21-19.07c3.43-10.07,7.84-19.79,10.54-30.13,3.14-12,6.89-23.79,9.12-36.09,4.61-25.48,12.51-50.08,21.9-74.23q5.83-15,12.19-29.75c6.11-14.29,13.76-27.8,20.92-41.56,8.3-15.94,17.6-31.19,29.2-45,6-7.17,12.12-14.38,18.66-21.08l.76-.65.76-.64c6.05-5,12-10.19,17.83-15.41q1.28-.89,2.58-1.74c14.92-9.64,30.15-20.24,48.9-21.64,7.9-.59,15.68-1,23.67,1.94,13.88,5.07,27.13,11.57,40.88,16.88s27.37,7.06,42.15,4.3c15.45-2.9,29.06-10,43.42-15.46,16.39-6.2,32.1-7.86,47.46-2.72h0c.48.28,1,.54,1.47.8l1.32.68c1.39.7,2.82,1.36,4.26,2l1.44.63c1.28.54,2.56,1.06,3.83,1.57h0c1.73,1,3.45,2.14,5.18,3.36,14,9.92,26.32,21.1,36.25,34.91s18.49,28.4,27.44,42.8c4,6.49,7.8,13.15,12.58,19.13,1.86,2.33,1.56,5.32,3,7.95,8.38,14.77,17.86,28.86,26.37,43.54,13.52,23.3,24.38,47.61,31.22,73.86,4.53,17.37,7.5,35,11.51,52.43,3,15.62,3.09,31.57,5.24,47.28,1.63,11.94,2.87,23.89,3.45,35.92a19.29,19.29,0,0,1-.42,4.85c-2.41,11.56-1.48,23.59-5,35-1.25,4-2,8.23-3.68,12.07-.71,1.66.85,1.84.68,2.82,4.48,4.55,9,9.08,13.42,13.65,8.8,9,14.43,20.35,22.21,30.13,7.92,10,13.7,21.25,19.71,32.45,9.6,17.89,13.91,37,16.69,56.83,1.4,9.93,2.73,19.84,2.66,29.88,2.29,8.85.88,17.87,1.14,26.81C688.11,674.39,688.9,683.05,685.44,691.6Z" transform="translate(-52.53 -49.01)"/>
    <path class="cls-2" d="M620.05,426.08c-2.41,11.56-1.48,23.59-5,35-1.25,4-2,8.23-3.68,12.07-.71,1.66.85,1.84.68,2.82-2.12,2.65-4.56,1.18-4.86-.79-.41-2.73-2.19-5.17-2.24-7.95a5.62,5.62,0,0,1,0-.82,6,6,0,0,1,.11-.7c3.95-15.16,5.78-30.63,7.15-46.19.77-8.69-.88-17.22-1.13-25.84-.1-3.46-.53-6.94-.69-10.43-.27-5.74-1.21-6.63-6.79-6.75-2.16-.05-4.32-.15-6.47-.11H597l-1-.06c-10.76-.51-19.11,5.17-27.23,11.28-7.43,5.59-14.38,11.77-21.23,18.05-1.71,1.57-3.42,3.16-5.7,3.82l-.38.1-.63.12c-2.08-.34-4.34-.46-4.37-3.42l.13-.18h0a.64.64,0,0,1,.1-.13c3.71-5.27,9.28-8.62,14-12.74,7.26-6.27,14.45-12.81,23.26-17a26,26,0,0,1,5.42-2.23c-5.22-1.58-10.67-3.35-15.27-7-17.81-14.08-34.69-29.06-46.57-48.79-4.9-8.14-10.9-15.53-16.63-23C490,280.88,480,266,468.49,252.17a60.19,60.19,0,0,0-7-7.13,58.45,58.45,0,0,0-2.14,11.55c-.75,6-3.13,9.05-8.94,9.41-11,.68-21.95.38-32.92.12-2.39-.05-4.34-2-6.82-1.87l-.33,0a6,6,0,0,1-.74,0,9.92,9.92,0,0,1-2.66-.69,23.43,23.43,0,0,1-2.65-1.33l0,0-1-.54a2,2,0,0,1-.56-.68,1,1,0,0,1-.11-.24,3,3,0,0,1-.12-.43,2.23,2.23,0,0,1,0-.45,1.43,1.43,0,0,1,0-.22,2.69,2.69,0,0,1,.34-.89c1.47-2,3.54-1.28,5.5-1.28,10.3,0,20.59.57,30.9-.52,11.73-1.25,13-10.73,11.9-19.67-.31-2.5-2.62-3.7-4.49-5.1-9.95-7.5-21.34-12.2-32.88-16.5-21.36-7.95-43.7-11.47-66.21-14-5.17-.59-6,.59-5.76,5.83.62,12.94,1.16,25.89-.53,38.81a5.68,5.68,0,0,1-.85,2.65.8.8,0,0,1-.13.19,3.08,3.08,0,0,1-.3.33,5.82,5.82,0,0,1-5.87.07,5.11,5.11,0,0,1-.22-.48.2.2,0,0,1-.05-.09c-2.11-4.62-1.63-9.55-1.77-14.47-.28-9.6.54-19.21-.4-28.81-.35-3.63-2.22-4.32-5.37-4.05a206.87,206.87,0,0,0-80.46,23.64c-6.33,3.38-11.82,8.09-17.34,12.63-4.68,3.85-2,9-1.37,13.58.52,4,3.87,5.83,7.66,5.92,11.65.24,23.29.5,34.95-.23,9.46-.58,18.9-1.64,28.39-1.54a9.34,9.34,0,0,1,4.39.78,3.91,3.91,0,0,1,.44.77.64.64,0,0,0,0,.07c.63,1.69-1.05,2.52-2.2,3.33a21.53,21.53,0,0,1-7.58,3.59l-.48.06-1,.13h0c-13.53,1.71-27.18,1.67-40.76,2.82-9.29.79-18.56-1.22-27.9-1.07-4,.07-6.76-3.56-7.26-8.17-.28-2.63.25-5.3-.44-8.3-5.06,3.41-8.12,8.43-12,12.64-13.6,14.84-26.82,30-40.27,45a87.59,87.59,0,0,0-5.87,7.44q-16,22.27-33.12,43.74a135.91,135.91,0,0,1-15.69,16.67C99,383.6,83.37,390.49,70.56,391.07c9.56,3.68,19.58,6.09,29,10.13,12.53,5.37,24.74,11.46,37.27,16.88,11.31,4.88,22.77,9.38,34.22,13.93,11.12,4.42,22.13,9.18,33,14.1,8.11,3.65,16.61,5.84,25.23,7.75,5.53,1.22,10.72,3.54,16.24,4.85,6.21,1.46,12.33,3.22,18.61,4.29h0c.73.13,1.46.25,2.2.35l.62.09c8.42.71,16.43,3.33,24.61,5.15,3.15.7,6.32,1.47,9.5,2h0a53.48,53.48,0,0,0,8.19.93l.73,0c6.37-.19,12.53,1.58,18.8,2.27,22.59,2.49,44-1.13,64.9-9.89,8.87-3.73,18.69-4.77,27.79-8,.33,0,.67,0,1-.06h0c.52,0,1.05-.1,1.56-.18h0c3.15-.47,6.19-1.49,9.32-2h.05l.91,0a10.38,10.38,0,0,0,3-.47c19.63-7.1,40.28-11.38,58.74-21.77,5.5-3.1,10.59-6.87,16.3-9.58,1.3-.62,2.46-1.58,3.94-1.66a3,3,0,0,1,.52,0h.14c2.23,1,5.44,1,5.06,4.63a.22.22,0,0,1,0,.11,1.41,1.41,0,0,1,0,.28c-7.18,3.88-13.59,8.95-20.63,13.09-15.54,9.13-32.84,13.62-49.49,19.88a248.35,248.35,0,0,1-45.78,12.05,31.47,31.47,0,0,0-8.15,2.31c-14.24,6.62-29.46,9.29-44.84,11.26a82.78,82.78,0,0,1-22.4-.16c-12.67-1.83-25.51-2.37-38.07-5-13.18-2.78-26.23-6.13-39.51-8.47-15.75-2.78-30.63-8.89-46.19-12.53-9.85-2.3-18.93-7.36-28-11.71-12.06-5.75-24.69-10-37-15.1-23.61-9.86-47.29-19.5-70.39-30.52h0l-1.69-.81-.69-.33c-4-1.08-7.42-3.63-11.42-4.67a9.53,9.53,0,0,0-1.31-.28,4.54,4.54,0,0,0-.51-.09,5.26,5.26,0,0,1-2-1.08,4,4,0,0,1-1-2.93,22.87,22.87,0,0,1-.36-3.72h0c.07-2,1.13-2.45,4.41-2.67h0c.51,0,1.06-.06,1.68-.09h.12c11.76,1.36,22.79-1.2,33.43-6.11a35.6,35.6,0,0,0,7.94-5.1c11.49-9.6,20.18-21.56,29-33.53,10-13.68,19.94-27.46,31.22-40.19,14.36-16.2,28.76-32.35,43.4-48.29a162,162,0,0,1,71.06-45.55c21.05-6.73,42.55-10.84,64.65-11,11.16-.08,22.07,2.83,33.08,4.43a246,246,0,0,1,39.28,9.26c26.14,8.35,48.93,21.77,66,43.66,20.08,25.71,39.31,52.06,58.54,78.41,10.78,14.78,25.26,26,40.52,35.9A24.22,24.22,0,0,0,593.76,369a69.36,69.36,0,0,1,12-.2c1.47.05,3.35.53,3.09-1.92-.06-.55-.09-1.09-.11-1.64-.12-2.41,0-4.83,0-7.24a.54.54,0,0,0,0-.18h0A23.68,23.68,0,0,0,608,352a8.81,8.81,0,0,1-.3-1.53c0-.08,0-.15,0-.23h0c.3-3.6-1.11-7.09-.9-10.67h0A11.27,11.27,0,0,1,607,338a4.32,4.32,0,0,1,.68-1,1.53,1.53,0,0,1,.18-.18c1.29-1.1,2.59.27,3.88,1.15,3,15.62,3.09,31.57,5.24,47.28,1.63,11.94,2.87,23.89,3.45,35.92A19.29,19.29,0,0,1,620.05,426.08Z" transform="translate(-52.53 -49.01)"/>
    <path class="cls-3" d="M682.15,684.84c-2.59,3.57-6,5.61-10.62,5.44-5.32-.21-8.42-2.87-8.85-8.18-.39-4.79-.62-9.67.56-14.39,1.5-6,2.37-12.05,3.56-18.07,3.16-16,2.69-32-.12-48,0-.3-.35-.53-.62-.74a202.66,202.66,0,0,0-7.82-27c-3-8.44-7.43-16.07-11-24.14-4.89-11-12.35-20.35-18.59-30.44-6.47-10.48-14.77-19.88-23-29.15,0-.11.11-.22.17-.33l0,0c.53-1,1.17-1.53,1.82-1-6-9-14.35-16.86-23.25-23.89-11.7-9.25-23.32-18.7-36-26.74-2.21-1.41-4-3.61-6.75-4.09h0l-.76-.34c-7.87-3.55-14.59-9-20.9-14.58-6.84-6.09-13.48-12.35-21.06-17.52a18.59,18.59,0,0,1-4.62-4.53c-5.57-7.74-12.69-13.45-20.53-18.41l-1.52-1q-3.09-1.89-6.28-3.67c-8.49-4.78-16.79-10.16-23.79-17.16a10.86,10.86,0,0,1-2-2.87c-2-3.86-1.63-7.55,1-9,3.5-1.87,6.08.44,7.58,2.9,4.87,8,13.18,11.57,20.44,16.32,16.29,10.67,32.55,21.33,48.16,33,9,6.77,19,12.28,28,19.19,9.75,7.49,19.33,15.21,27.44,24.56,1.84,2.13,3.93,3.86,6.83,4.26l.22,0h0c2.43.4,3.75,2.39,5.51,3.77l.23.18.22.2c6.36,5.61,12.43,11.55,19,16.86.34.29.68.56,1,.83-.33,2.73,4.26,4.22,1.9,7.73-.3.45,2.37,1.91,4.15,1,4.48,4.55,9,9.08,13.42,13.65,8.8,9,14.43,20.35,22.21,30.13,7.92,10,13.7,21.25,19.71,32.45,9.6,17.89,13.91,37,16.69,56.83,1.4,9.93,2.73,19.84,2.66,29.88a3.25,3.25,0,0,0-.73,2.81c1.82,9.53.24,19.16.89,28.74C687.24,675.8,685.25,680.57,682.15,684.84Z" transform="translate(-52.53 -49.01)"/>
    <path class="cls-4" d="M611.78,338c-1.67,1.39-2.31-1.46-3.77-.91a1.36,1.36,0,0,1-.29-.06,2.9,2.9,0,0,1-1.48-.72c-1.11-1-1-2.84-1.25-4.19-.49-3.07-1.22-6.06-1.91-9.07a.44.44,0,0,0,0-.1c-.33-1.46-.66-2.93-.94-4.41-4.79-15.75-8.12-31.91-13.06-47.6a232.74,232.74,0,0,0-22-48.49c-6.08-10.28-11.59-20.93-17.79-31.17-10.94-18.06-21.13-36.56-32.26-54.5-.7-1.13-1.3-2.32-1.95-3.49l-.11-.17c-.73-1.11-1.45-2.22-2.19-3.33v0c-11.68-17.75-24-35-39.34-49.88-6.35-6.14-13.1-12.08-20.75-16.36-10.71-6-22.6-7.31-34.85-5.65-12.78,1.73-24.1,7.44-35.65,12.55-13.82,6.12-28,10.76-43.28,10.82-9.72,0-19.16-2.39-28.18-5.82a251.38,251.38,0,0,1-25.11-11.1A74.87,74.87,0,0,0,251,55.81c-9.59,0-18.41,3.86-27.11,7.89C200,74.78,182.42,93.27,165.4,112.62c-18.47,21-31.41,45.29-43.55,70.19C108.16,210.9,98,240.33,87.56,269.7c-.17.5-.35,1-.52,1.49,0,.09-.07.18-.1.27-3.42,13.72-5.37,27.75-8.88,41.45-3.75,14.67-8.79,29-12.94,43.52-.21.54-.43,1.08-.65,1.62-.14.33-.28.67-.41,1a29.44,29.44,0,0,0-1.1,3l-.11.28h0c-.07.2-.15.4-.22.61-1.18,3.25-2.16,6.58-3.49,9.78-1.53,3.72-3,7.47-.35,10.88a9.71,9.71,0,0,0,1.3,1.37c-3.26.09-7.44-1.06-7.18,3.88-.09-.83-.17-1.66-.22-2.48h0a47.65,47.65,0,0,1,2.21-19.07c3.43-10.07,7.84-19.79,10.54-30.13,3.14-12,6.89-23.79,9.12-36.09,4.61-25.48,12.51-50.08,21.9-74.23q5.83-15,12.19-29.75c6.11-14.29,13.76-27.8,20.92-41.56,8.3-15.94,17.6-31.19,29.2-45,6-7.17,12.12-14.38,18.66-21.08l.76-.65.76-.64c6.05-5,12-10.19,17.83-15.41q1.28-.89,2.58-1.74c14.92-9.64,30.15-20.24,48.9-21.64,7.9-.59,15.68-1,23.67,1.94,13.88,5.07,27.13,11.57,40.88,16.88s27.37,7.06,42.15,4.3c15.45-2.9,29.06-10,43.42-15.46,16.39-6.2,32.1-7.86,47.46-2.72h0c.48.27,1,.54,1.47.8l1.32.68c1.39.7,2.82,1.36,4.26,2l1.44.63c1.28.54,2.56,1.06,3.83,1.57h0c1.73,1,3.45,2.14,5.18,3.36,14,9.92,26.32,21.1,36.25,34.91s18.49,28.4,27.44,42.8c4,6.49,7.8,13.15,12.58,19.13,1.86,2.33,1.56,5.32,3,7.95,8.38,14.77,17.86,28.86,26.37,43.54,13.52,23.3,24.38,47.61,31.22,73.86C604.8,303,607.77,320.59,611.78,338Z" transform="translate(-52.53 -49.01)"/>
    <path class="cls-5" d="M604,490.16c-3.53,10.39-8.95,20-13,30.16-3.71,9.35-9.39,18-14.82,26.34-11.42,17.52-23.8,34.57-39.16,49.06-6.16,5.81-13.07,10.7-19.72,15.93-17.34,13.63-36.24,24.59-56.11,33.83a235.78,235.78,0,0,1-44.94,15.37c-.48.12-1,.21-1.45.33h-.06l-3.31.44-.14,0q-2.91.39-5.82.82l-4.08.62c-1.43.23-2.85.47-4.27.72l-2.36.44-3.31.65-.7.14-2.6.54h-.05a311.24,311.24,0,0,1-54.54.51c-12.42-.87-24.9-1-37.2-3.23-9.63-1.73-19.54-3-28.79-5.45-13.52-3.53-27.58-4.53-40.78-9.32-8.59-3.11-16.74-7.42-25.66-9.57a51.7,51.7,0,0,1-18.24-8.7c-8.86-6.43-17.34-13.42-25.7-20.5-6.83-5.78-12.86-12.44-19.93-18-10.34-8.18-18.05-19-26.69-28.82C91.9,541.16,84,514.5,74.24,488.8c-6.32-16.71-10-34.26-14-51.64-.52-2.23-.2-4.64-.28-7,0,0,0,0,0-.06-1-3.31.41-6.83-.83-10.13a.5.5,0,0,1-.18-.74c2.29-2.5,2.71-.05,3.13,1.34a6.35,6.35,0,0,1,.23,1l.06.4a21.74,21.74,0,0,0,.57,4.13v0a5,5,0,0,0,1,1.72l.12.14c2,3.76,2.19,8,3.08,12,4.77,21.65,10.25,43,19.93,63.17,3.52,7.33,6,15.14,9.2,22.67,4.78,11.45,10.81,22,19.23,31.28,9.83,10.82,18.13,23.11,29.4,32.56,13,10.88,25.73,22,39.8,31.6,16.57,11.3,35.29,16.87,54.07,22.45,15.94,4.73,32.36,7.59,48.61,11,13.12,2.79,26.48,5,40.05,4.8,10-.15,20-.18,30,0a223.56,223.56,0,0,0,56.39-6.2c17.18-4.13,33.53-10.89,49.73-18a124.71,124.71,0,0,0,20-11.13c13.79-9.32,27.86-18.25,41.4-27.92,8.45-6,14.86-14.26,21.3-22.35,7.56-9.52,14.63-19.42,22.83-28.42a18.28,18.28,0,0,0,2.68-4.2c8.25-16.35,16.72-32.59,23.62-49.59.75-1.85,1.4-3.75,2.89-5.2.2-.11.39-.21.57-.29l.21-.09h0C602.32,484.86,603.41,487.13,604,490.16Z" transform="translate(-52.53 -49.01)"/>
    <path class="cls-6" d="M685.44,691.6c-2.72,6.73-7.75,12.8-13.53,13.38-8.21.84-14.47-2.57-18.87-9.33-4.81-7.4-3.78-15-.45-22.69,4.19-9.6,9.3-18.94,12.2-28.91,2.43-8.36,4-17.21,2.56-26.37-.85-5.45-2-11.08-1.29-16.74a4.41,4.41,0,0,1,1.13-1c.62-.25.69.27.75.77,2.23,18.22,3.62,36.27-.83,54.57-1.94,8-4.36,16.25-3.26,24.86.41,3.19.08,6.58,3.7,8,3.9,1.49,7.86,1.51,11.18-1.56,4.77-4.41,7.42-10.18,7-16.41-.56-9.19.83-18.41-.67-27.58-.16-1-2.27-4,1.62-3.7,2.29,8.85.88,17.87,1.14,26.81C688.11,674.39,688.9,683.05,685.44,691.6Z" transform="translate(-52.53 -49.01)"/>
    <path class="cls-7" d="M605.79,489.84l0,0a.59.59,0,0,0-.17.33l-1.56,0c-1.8-.74-1.63-4.44-4.76-3.18l0,0c-.14-.19-.29-.37-.45-.56a113.46,113.46,0,0,0-16.1-16.4l-.32-.27,0,0c-5.67-4.08-10.9-8.72-16.58-12.78-.25-.19-.51-.37-.77-.54s-.52-.38-.79-.56a92.91,92.91,0,0,0-21.41-15.91c-1.85-1-3.75-2.19-4.11-4.63a.34.34,0,0,1,.06-.12.13.13,0,0,1,0-.08c.41-.84,1.31-1,2.1-1.3A2.25,2.25,0,0,0,542,433c3.68.37,5.82,3.42,8.62,5.23,9.94,6.42,18.84,14.33,28.51,21.09,7.87,5.5,14,12.77,21.58,18.56,3.21,2.46,4.82,6.56,7.4,9.77C610.14,490.24,606.68,489,605.79,489.84Z" transform="translate(-52.53 -49.01)"/>
    <path class="cls-8" d="M63.9,427.92a4,4,0,0,1-.59.94c-2.8-1.65-2-4.44-2.26-6.93-.13-1.2.86-3.59-2.11-2.67A162.33,162.33,0,0,1,54,393.05l2.1-.06a4.71,4.71,0,0,1,1.72,1.51,10.3,10.3,0,0,1,1.39,3.33c2.32,8.48,3.5,17.18,4.91,25.83A7,7,0,0,1,63.9,427.92Z" transform="translate(-52.53 -49.01)"/>
    <path class="cls-8" d="M60,430.19l0-.06c-1.59-3.26-.22-6.78-.83-10.13C61.2,423.25,59.83,426.78,60,430.19Z" transform="translate(-52.53 -49.01)"/>
    <path class="cls-9" d="M63.31,428.86c-1.71-12.1-3.14-24.25-7.21-35.87,5,0,8.68,3.32,12.95,5.16,3.18,1.88,4.61,5.18,6.57,8.05,5.95,9.9,9.25,20.31,9.09,32.17C84.54,450.91,88.19,463,91.84,475a18.84,18.84,0,0,0,3.46,6.6c2.39,2.9,5,4.37,8.53,1.75a5.68,5.68,0,0,1,6.17-.71c6.07,3.23,11.6,7.21,14.87,13.47,5.48,10.52,13.84,19,19.82,29.87,2.59-2.91,1.6-6.06,2.77-8.5,1-2.16,1.23-5.72,4.27-5.37s2.6,3.79,2.68,6.2c.2,5.66-1.48,11.24-.91,16.93.12,1.23-.32,3.15,1.41,3.24s1.59-1.87,1.7-3.09c.27-3,.82-5.65,4.4-6.35,1.29-.25,1.69-1.49,2.28-2.48.92-1.54,2.15-2.71,4.07-2s2,2.61,1.81,4.25a87.72,87.72,0,0,0-.72,12.95c.28,19.06-1.9,14,10.33,26.66,3.73,3.86,7.38,6.48,12.88,7.59,5.24,1.06,10.18,3.69,15.72,4.11,2.57.2,2.8,2.5,3,4.54.27,2.92-.27,5.93.81,9.49,1.87-2.65,1.35-5,1.47-7.24.4-7.66,1-15.3,3.33-22.67.71-2.28.94-5.87,4-5.48s2.79,4,3,6.57a185.68,185.68,0,0,1-.5,30.38,26.93,26.93,0,0,0,0,4.49c.16,2.09-.52,4.92,2,5.65s2.58-2.69,4.14-3.61c7-4.11,7.32-10.7,7.36-17.7,0-2.41.13-6.21,3.71-6s3.63,3.87,3.66,6.64c.08,8,1.78,15.73,3.09,23.79a10.94,10.94,0,0,1,9.28-5.81c3-.25,4.37-2.68,5-5.51,1.06-4.73.94-9.61,1.93-14.35.44-2.12.61-4.77,3.5-4.58,2.4.15,2.88,2.56,3.06,4.56.31,3.47,1.23,6.9.69,10.43a8.94,8.94,0,0,0,.73,4.89c.62,1.49.86,3.69,2.8,3.72,1.73,0,1.77-2.15,2.44-3.43a9.06,9.06,0,0,1,2.74-3.5c2.31-1.59,4.08-1,5.21,1.48a12.79,12.79,0,0,1,.6,3.43c.27,1.89-.1,4.62,2.71,4.5s2.2-2.85,2.54-4.72c.91-5.08,1.12-10.25,1.92-15.36.69-4.32,3.8-3.94,6.71-4.14,3.26-.21,3.76,2.22,4,4.63a57.71,57.71,0,0,1,0,9.48c-.12,1.49-.31,3.08-2,3.69-1.88.68-2.59-.93-3.56-2a2.68,2.68,0,0,0-.2,1c-.23,9.68.11,9.81,9.54,11.38,11.32,1.88,22.7,3.13,34.13,4.1,4.8.41,5.83-.38,5.26-5.12a89,89,0,0,1-.78-13.44,12.57,12.57,0,0,1,.57-4.44c.52-1.31,1.34-2.4,2.92-2.24,1.42.15,1.85,1.39,2,2.54.39,3.31.95,6.6,1.21,9.92s1.6,6.1,2.58,9.1c.3.93.75,2.06,1.93,2s1.52-1.19,1.87-2.12a26.41,26.41,0,0,0,1.92-9.25c0-3.83-.14-7.66.08-11.49.12-2.06-.14-4.9,3-4.8,2.7.09,2.44,2.71,2.66,4.63.31,2.7-.4,5.53,1,8.88,1.79-2.92,1.09-5.46,1.39-7.82s.7-4.5,3.39-4.86,3.89,1.63,4.67,3.73a45.89,45.89,0,0,1,2.67,17.67c-.1,3.45-.56,7.32,4.69,7.73,6.32.5,10.81-2.26,11.62-7.15a53.58,53.58,0,0,0,.16-18.39,6.85,6.85,0,0,1-.15-1.49c.11-2.25-.68-5.22,2.32-5.88s3.44,2.38,4.38,4.43c2.39,5.21,1.84,10.75,2,16.23.11,5,.53,4.95,5.1,3.47,6.13-2,12-5.2,18.65-5.2,3.52,0,5-2.16,5.29-5.4.44-4.81,1.42-9.56,1.15-14.43a18.2,18.2,0,0,1,.24-4.48c.31-1.6,1-2.86,2.82-3a3,3,0,0,1,3.39,2.91c.7,6.26,2.31,12.45,1.7,18.84-.21,2.29-.84,5.15,2.27,5.77,2.78.56,4.54-1.61,5.81-3.88a9,9,0,0,0,.73-4.39c.05-2.33-.08-4.67.1-7s.64-5,3.7-5,3.47,2.67,3.82,5,.08,4.66.21,7c.15,2.61-.24,5.86,3.75,5.74,3.73-.11,4.42-2.89,4.42-6,0-7.66,0-15.32,0-23,0-1.67-.09-3.34.07-5,.19-1.95,0-4.39,2.65-4.71s3.7,1.9,4.33,4a37.31,37.31,0,0,1,1.73,10.81c0,3.67-.08,7.33.06,11,.05,1.44-.21,3.35,1.58,3.83s2.77-1,3.45-2.33c2.75-5.31,5.82-10.45,7.36-16.35,1.76-6.76,2.11-13.83,4.62-20.42.64-1.69.73-4.07,3-4.1,2.38,0,3.22,2.22,3.58,4.21.7,3.93,2,7.72,2.48,11.72a33.76,33.76,0,0,0,2.09,9.18,10.48,10.48,0,0,0,2.66-6.6c.91-8.26,2.46-16.45,2.47-24.83,0-4.73-.12-9.67,2.83-13.89,3.61-1.44,4.55.82,4.66,3.63.18,4.31.53,8.66-.44,12.92-1.42,6.24.22,12.54-.74,18.88,3-2,4.36-4.95,5.15-8a132.84,132.84,0,0,0,4.52-29.48,11.35,11.35,0,0,1,.53-3.93c.63-1.63,1.65-3,3.52-3.13,2-.15,2.9,1.38,3.43,3a39.48,39.48,0,0,1,2.18,14.22,22.38,22.38,0,0,0,.13,4.48c.12.83.34,1.69,1.23,2,1.18.41,1.85-.37,2.43-1.22A355.68,355.68,0,0,0,562,497.33a54.93,54.93,0,0,1,6.75-9.8c4.9-6,8.84-12.81,14.18-18.5,6.22,5.28,13.41,9.66,16.31,18-4.61,10.11-9.07,20.3-13.89,30.31-4.54,9.41-8,19.83-14.5,27.72-14.28,17.38-26.21,37-43.72,51.42-9.74,8.05-21.25,13.92-31.38,21.54-20.22,15.24-43.34,24.44-66.88,32.61-21.76,7.55-44.53,10.08-67.48,10.49-13.82.25-27.7.61-41.45-.38a230.11,230.11,0,0,1-44.5-7.23c-9.69-2.67-19.66-4.35-29.53-6.36-12-2.45-23.57-6.51-34.93-11.06-6.84-2.74-14.17-4.54-20.24-8.86-11.12-7.91-22.78-15.09-32.58-24.83-4.64-4.62-10.51-7.92-15.39-12.42-9.8-9-17.51-19.92-26.6-29.56-14.29-15.14-21.09-34.2-29-52.86-6.41-15.14-12.29-30.37-16.55-46.25C67.78,450.55,65.66,439.68,63.31,428.86Z" transform="translate(-52.53 -49.01)"/>
    <path class="cls-10" d="M516.24,133.07c8.81,14.64,17.16,29.56,26,44.14,9.66,15.86,18.89,31.95,28,48.12,11,19.55,19.66,40.14,24.66,62.18,2.31,10.17,5.41,20.17,8.15,30.25,1.52,11.15,4,22.14,5.87,33.23a1,1,0,0,1,.13.88c.69,1.78.23,3.63.35,5.44-2.08,1.94-2.77-.06-3.37-1.36-1.27-2.7-2.84-5.36-3.5-8.26-6.76-29.71-22.23-55.43-37.42-81.2-9.45-16-18.6-32.26-29.14-47.59-5.82-8.47-13.48-15.61-19.41-24-9-12.75-21.63-20.9-34.55-28.8-5.68-3.48-10.69-7.86-16.36-11.41-9.05-5.66-19.08-9.41-28.18-14.94-2.4-1.47-5.11-2.48-6.66-5-.61-.84.36-4.15-2.47-1.55a2.79,2.79,0,0,1-2.33.5,64.66,64.66,0,0,1-13-6.18c-12.34-7.34-26-10.62-39.73-14-11.06-2.69-22.07-4.92-33.43-4-15.58,1.23-31.07,3.22-44.75,11.71-2.31,1.42-5.18,1-7.17,2.88a5.43,5.43,0,0,1-1.26,1.74c-18.77,10.57-35.33,24.17-51.74,38A186.46,186.46,0,0,0,213,184.69c-1.66,1.93-4.05,2.84-5.5,4.88-.24.9-.45,1.81-.77,2.68a148.49,148.49,0,0,1-8.45,12.87c-6.43,8.21-11.87,17.14-18.21,25.41-1.58,2.07-2.9,5.42-6.55,2.64-1.9-2.23-1.21-5.35-2.93-7.81-2.33,4.43.3,9-.21,13.44.06,3.21,0,6.46-2.34,8.94-5.17,5.46-8.68,12.15-13.36,18-9.78,12.14-20.88,23.17-30.82,35.13-12.13,14.59-25.2,28.26-38.27,41.94-5.46,5.71-11.36,11.2-18.2,15.38-1.33.81-4.11,3.06-3.42-1.51,2.42-8.56,4.45-17.26,7.36-25.65,6-17.31,9-35.28,12.51-53.15a24.48,24.48,0,0,1,2.19-7A22.48,22.48,0,0,1,92,267.53a66.66,66.66,0,0,0,28.61-20.93c3.53-4.34,6.15-9.56,11.33-12.41,9.71-5.42,11.19-10.07,7.11-22.37-.08-4.84,1.14-9,5.85-11.37,6.75-3.7,10-11,15.94-15.56,7.26-5.6,13.34-12.37,19-19.64,8.08-10.39,19.93-15.79,31.12-22a97.06,97.06,0,0,0,15.42-10.93,24.94,24.94,0,0,0,7.43-10.45c1-2.76,1.78-5.76,4.28-7.76,2.79-2.36,6.14-2.51,9.56-2.42,6.89.18,12.07-2.65,15.45-8.71a11.17,11.17,0,0,1,3-3.87A123.8,123.8,0,0,1,286.62,87.9c12-5.45,24.46-3.72,36.82-2.76,11.93.92,23.86,1.8,35.74,3.33,4.64.6,9.33-.81,13.58-2.76a87.47,87.47,0,0,1,45.68-7.91,85.28,85.28,0,0,1,19.38,4.36c26.46,9,48.68,25,70.07,42.37C511,127.05,512.92,130.75,516.24,133.07Z" transform="translate(-52.53 -49.01)"/>
    <path class="cls-9" d="M206,192c0-1,0-2,0-3,2.76-1.91,4.28-.5,5.33,2a94.09,94.09,0,0,0,9.28,17c2.58,3.81,4.26,4.44,8.09,1.58,9.92-7.4,21.49-11.73,32.18-17.69a8.44,8.44,0,0,1,3.23-1.29c8.12-.61,10.24-6.52,11.17-13,2.22-15.46,6.82-30.48,8.4-46.05a13.29,13.29,0,0,1,2.31-6.5l1-1c3.44-1.22,4.32,1.37,5.25,3.65,2.16,5.33,2.46,11,3.05,16.65,1.05,9.93,2.86,19.77,3.26,29.77.15,3.87,2.27,5.6,6.16,5.54a33.77,33.77,0,0,0,10.82-1.45c4.22-1.46,8.52-2.88,13.14-2.62,3,.17,5.15-1,6-4.13.37-1.45.89-3,2.82-3s2.5,1.51,2.73,3c.57,3.75,2.53,3.95,5.7,2.84,4.57-1.59,6.72-4.85,8.34-9.17,5.38-14.39,6.28-29.57,8.36-44.55.3-2.14-.58-5.71,2.48-5.62,3.29.09,3.54,3.78,3.16,6.31-2.11,14.2.68,28.65-2.38,42.82-1,4.66.63,6,5.18,4.49,7-2.31,13.58.22,20.07,1.94,4.31,1.14,7.27.47,10.29-2.6,8.72-8.89,14.93-19.54,21.49-29.95,1.16-1.83,2.08-3.83,4.1-4.93.4-.28.82-.53,1.19-.84,1.05-.85,1.26-3.45,3-2.52s.36,2.88-.18,4.34c.53.69,1,1.59.7,2.31-2.45,5.49-2.3,11.66-4.91,17.17-3.11,6.59-6.47,13.14-7.81,20.45-.62,3.41.21,5.16,4,5.93,5,1,9.92,2.25,14.57,4.81,5.27,2.89,10.36.27,15-2.6a64.65,64.65,0,0,0,5.14-4c1.29-1,2.63-2.31,4.45-1.27,2,1.15,1.56,3.09,1.32,4.91a25.82,25.82,0,0,1-3.92,10.72c-2,3.14-1,5.22,1.9,7,6.56,3.93,13.71,6.8,20,11.24,1.9,1.35,3.76.86,5.46-.65a25.58,25.58,0,0,0,4.78-5.74c.71-1.17,1.69-2.11,3.24-1.89,1.75.25,2.48,1.59,2.91,3.06a16.09,16.09,0,0,1-.05,7.92c-1.12,5.42.09,9.54,4.41,13.76C513.18,238,524.19,248.81,535,259.86c5.59,5.72,9.81,12.6,14.81,18.83,12.26,15.28,18.91,34,30.56,49.61,8.45,11.33,17.16,22.45,26.17,33.52,1.81-1,1-3.08,2.29-3.87.08-2,.17-4.05.25-6.08,2,5.61-.21,11.58,1.52,17.26.49,1.62-1,1.62-2.31,1.39-5.45-.95-10.87-.37-16.34.13a25.11,25.11,0,0,1-13.82-3.14C568,362.16,559.71,354.3,551,346.92c-18.9-16.12-30-38.28-45.25-57.22-11.44-14.2-21.6-29.42-33.63-43.16-13.46-15.37-30-26.28-49.09-33.52a219,219,0,0,0-38.43-11.16c-15-2.71-30-6.38-45.19-6.61C321.68,195,304.19,198,287,202.74c-17.63,4.85-34.66,11.09-49.92,21.17a191.88,191.88,0,0,0-38.92,34.53c-13.82,15.88-28.55,31-42.22,47-8.91,10.44-16.84,21.74-24.8,32.94-8.86,12.45-17.63,24.92-29.62,34.64-9,7.28-19.47,11-30.91,12-3.48.29-7,.05-10.49.05-4.63-1-5.31-4-3.87-7.91C58.1,372,60.05,366.9,62,361.8c6.18,4.34,11.32.28,16.07-2.61,11-6.66,20.27-15.27,28.88-24.91,7.19-8,13.58-16.79,21.43-24.27a65.26,65.26,0,0,0,10.13-12.92c6-9.68,13.49-18.15,20.51-27,2.6-3.28,6.51-5.57,9.53-8.66,1.35-1.38,2.63-2.85,2.18-4.78-1.33-5.82-1-11.77-1.62-17.65-.33-4.09-.7-8.18-1-12.28-.12-1.78.45-3.79,2.24-3.92,2.26-.15,2.82,2,2.69,3.89-.16,2.22.59,4.23,1.06,6.31a40.37,40.37,0,0,1,4.26,6.67c2.43,4.5,5.12,5.19,9.23,2,7.44-5.77,14.94-11.46,22.1-17.59,2-1.7,2.47-3.51,1.9-6.13a195.56,195.56,0,0,0-5.23-20.68C205.77,195.59,205,193.85,206,192Z" transform="translate(-52.53 -49.01)"/>
    <path class="cls-11" d="M266.08,464.89c-8-2-16.15-3.61-24.08-5.94-16.28-4.78-32.86-8.41-48.37-15.9-14.31-6.9-29.52-11.91-44.16-18.16-15.51-6.62-31-13.34-46.14-20.82-8-4-17-6-25.56-9a81.39,81.39,0,0,1-10.84-4.61c10.1.41,18.85-3.87,27.66-7.35,10.12-4,17.6-12,24.29-20.11,12-14.58,23.34-29.7,34.53-44.9,10.84-14.73,23.38-27.93,35.56-41.48,7.77-8.64,15.43-17.38,23.1-26.1,1.21-1.37,2.23-2.91,4-5.27,1.45,4.66.84,7.89.91,11,.15,6.4,2.36,8.76,8.53,8.79s12.32.84,18.37.75c14.88-.21,29.8-.74,44.61-2.65a37.32,37.32,0,0,1,4.49-.06c-.63,4.36-4.19,6.16-7.57,6.8-6.28,1.2-10.91,4.94-15.43,8.75-14.28,12-26,26.12-33.5,43.4a28.67,28.67,0,0,0-1.76,4.12c-5,19.49-6.69,39-4.24,59.24,1.92,15.74,6.19,30.55,11.84,45.14a49.91,49.91,0,0,0,8.4,14.41c5.08,6.09,9.52,12.71,15.43,18.13C266.71,463.55,266.49,464.3,266.08,464.89Z" transform="translate(-52.53 -49.01)"/>
    <path class="cls-12" d="M422,457a141.43,141.43,0,0,1-21.3,6.17c-3.66.79-7.11,2.59-10.65,3.94-19.8,7.56-40.1,10.68-61.32,8.13-6.23-.74-12.37-2.25-18.67-2.35-3.2-1.34-6.7-1.46-10-2.57-2.85-1-6.59.07-6.53-4.8,0-1.05-1.16-.76-2-.68-6.16.54-7.15-.22-8.47-6.42a5.7,5.7,0,0,0-1.64-2.66c.66,1.6,1.56,3.26-.35,4.47a3.74,3.74,0,0,1-5-.5c-3.46-4.08-8.25-6.57-11-11.87a29.4,29.4,0,0,0-9.52-11.1c-3.32-2.16-4.55-4.78-2.74-8.39,1.05-2.09.5-3.42-1.37-4.55a7,7,0,0,1-3.5-5.74c-.4-6.33-2.52-12.36-3.1-18.65a8.09,8.09,0,0,0-2.78-5.63c-2.08-1.85-3.61-4.13-2.66-7,1.06-3.23,4-2.94,6.69-3.09a58,58,0,0,1,6.45.51c9.9.94,21.62-11.29,20.54-21.09-.45-4.12-1.33-8.22-1.13-12.39.32-6.66,3.78-11.93,8-16.8a29.31,29.31,0,0,0,4.48-6.56c1.74-3.71,1.66-7.08-1.67-9.91a11,11,0,0,1-2.91-4c-2.84-6.45-3.72-6.93-11-6.55a6.32,6.32,0,0,1-2-.23,15.21,15.21,0,0,1-3.9-2.21c-2.58-1.84-2.84-4-.7-6.29,2.67-2.92,4.76-6.5,8.85-7.82a2.46,2.46,0,0,0,1.23-.83c4.95-7.24,13.07-10,20.09-14.37,2.71-1.66,5.39-3.3,6.71-6.45a3.61,3.61,0,0,1,3.12-2.17c8.36-1,16.49-3.14,24.64-5.06,9.91-2.34,19.78-2.17,29.76-1.09a55.51,55.51,0,0,0,14.45-.26c7.82-1.21,15.33-1.19,21,5.73a8.05,8.05,0,0,0,4.84,2.44,45,45,0,0,1,22.16,11.6c5.46,5,12.53,8.16,17.29,14.13,1.63,2,3.95,3.78,2.9,6.93-2.36,1.45-3.42-.56-4.39-1.91a30.58,30.58,0,0,0-17.55-11.6c-6.55-1.64-12.95-4.32-19.67-4.93-10.08-.92-20.33-1.23-30.33.1-7.31,1-14.72,2.52-20.26,9.15s-14.39,8.54-22.67,10.52c-5.62,1.35-11.3,2.2-16.49,5.23-7.57,4.41-10.61,11.88-13.16,19.31-2.85,8.31-5.22,16.62-9.77,24.33-6.72,11.37-3.62,22.52,2.92,32.91,3,4.78,5.33,10,8.9,14.42a11.56,11.56,0,0,1,2.39,6c1.36,14.57,12.24,21.58,23.07,28a200.33,200.33,0,0,1,20.15,13.76c14.38,11.09,30.1,13.89,47.43,9.85a7.3,7.3,0,0,1,2.47-.34c11.88,1.45,20.57-5.45,29.38-11.57,5.05-3.52,8.6-8.56,11.47-14.18,3.25-6.37,6.93-12.52,9.61-19.17,3.24-8.08,4.79-16.61,6.51-25.08,1.17-5.72,2.89-11.26,4.54-16.84,2.24-1.13,3.49.38,4.77,1.81,2.81,6,1.14,12.13,0,18.06-1.34,7.33-3,14.72-5.85,21.57-6.12,14.48-12,29.24-24.1,40.13C426.38,452.56,425.17,455.79,422,457Z" transform="translate(-52.53 -49.01)"/>
    <path class="cls-13" d="M74.12,405.94l-5.07-7.79C82.55,404,96,410,109.55,415.8c18.69,8,37.46,15.87,56.5,23,9.61,3.62,18.8,8.23,28.2,12.33a147.4,147.4,0,0,0,25.78,8.5c12.23,2.85,23.84,8,36.32,9.94,22.55,3.47,44.44,10.34,67.46,11.75,13.48.82,26.79,1.91,40.14-.42a162.47,162.47,0,0,0,36.16-10.44c6.16-2.63,12.89-3,19.41-4.18,15.76-2.83,30.32-9.53,45.53-14.13a173.29,173.29,0,0,0,52.27-25.89,9.71,9.71,0,0,1,4.63-1.48,10.63,10.63,0,0,1,8.61,4.84c.52,2.72-1.65,3.79-3.27,5.08-12.14,9.72-23.73,20.11-36.08,29.6-1.87,1.44-4.41,2.46-5,5.25-5,2.87-9,7.28-14.22,9.82-5-.61-8.42,3.18-12.55,4.9-5.62,2.34-11,5.29-16.57,7.74-18.95.7-36.35,8-54.28,12.89-14.13,3.88-28.57,4.25-43,5-18.93.95-37.42-2.78-55.95-5.68-6.4-1-12.63-3-18.92-4.6-8.08-2.06-16.13-4.28-24.55-2-5.9-6.11-14.4-6.69-21.59-10.09-11.1-3.48-21.62-8.87-33.37-10.21-15.14-3.7-30.69-6.4-44-15.22-10.63-7-20.91-14.51-28.79-25-8.85-11.74-20.17-20.54-34.29-25.35C80.68,410.11,77,408.64,74.12,405.94Z" transform="translate(-52.53 -49.01)"/>
    <path class="cls-11" d="M409.93,263.1c12,3.27,24.27,1.61,36.42,1.89,9,.2,10.53-1.33,11.72-10,.56-4,1.49-8,2.33-12.44,6.22,4.4,11,10.11,15,15.95,9.58,13.93,20,27.26,30,40.79,9.48,12.75,17.46,26.62,28.09,38.45,6.19,6.89,13.38,12.89,20.23,19.18,3,2.79,6.33,5.32,9.54,7.94,5.5,4.48,12,6.75,19.5,8.89-10.94,3.52-19.1,10.51-27.48,17.13-6.23,4.92-11.64,10.83-18.34,15.18-4.8.9-7.45-3.12-10.81-5.12-9.91-5.9-19.45-12.43-27.89-20.4A12.6,12.6,0,0,0,494,378a33.48,33.48,0,0,1-9.95-5.54c-5.29-4.57-10.6-9-17.46-11-1.08-.32-1.31-1.39-1.21-2.47,1-2.55.79-5.12.52-7.82-2.32-22.9-11.21-43.1-25-61.33-1-1.3-1.83-2.8-3.52-3.4a4.49,4.49,0,0,1-3.35-2.44,12.91,12.91,0,0,0-6.47-6.25,4.4,4.4,0,0,1-1.75-2c-2-3-5-4.35-8.11-5.7a6.23,6.23,0,0,1-1.26-.64,37.76,37.76,0,0,0-5.23-3.3C410.13,265.41,408.93,264.72,409.93,263.1Z" transform="translate(-52.53 -49.01)"/>
    <path class="cls-1" d="M340.06,248.94c.7-15.1,1.35-30.21-.06-45.3-.32-3.48,1.7-3.95,4.32-3.62,10,1.27,20.05,2.24,30,4a233.07,233.07,0,0,1,54.16,16.13c7.63,3.34,14.42,8,21.39,12.42,2.43,1.53,3.86,3.53,3.21,6.59a13.76,13.76,0,0,0,0,2.49c-.23,11.95-5,16.77-16.92,17.22q-14.7.56-29.4-.18c-1.43-.07-3-.75-3.93,1.09-2.48,1.07-4.38-.73-6.48-1.39-4.83-1.52-9.54-3.41-14.5-4.5-10-4.89-20.77-2.87-31.26-3.36C347,250.33,343.24,251.59,340.06,248.94Z" transform="translate(-52.53 -49.01)"/>
    <path class="cls-1" d="M303.07,257.19c-10.84-.93-21.58.72-32.35,1.29-12.3.65-24.59.72-36.88.46-4.38-.09-7.42-2.4-8.41-7-.78-3.57,0-7.23-1-10.82-.46-1.67,1.17-2.87,2.5-4,22.62-19.11,49.6-28.29,78-34,7.46-1.51,15.11-2.05,22.66-3.09,4.07-.56,5.75.4,5.7,5.22-.15,14.56.41,29.13.69,43.7a4.81,4.81,0,0,1-3.51,1.63,78.26,78.26,0,0,0-22.27,6.74C306.56,258.09,304.75,258.57,303.07,257.19Z" transform="translate(-52.53 -49.01)"/>
    <path class="cls-14" d="M303.07,257.19c5.3-.52,9.62-3.77,14.59-5.25A80.37,80.37,0,0,1,334,249h6.06c9.23,0,18.46.18,27.69.05A29.43,29.43,0,0,1,383,253.17c4,5.33,8.87,8.4,16,6.22,1.13-.35,2.79.78,4,1.63h0c2.18,1.38,4.85,2.19,5.36,5.35.35,2.24,2.35,2,4,2.07s3.3-.84,4.75.54a3.48,3.48,0,0,1,.91.05c.34,3.81,2.74,5.28,6.24,5.34,1,0,2-.17,2.75.64l1,2a1.75,1.75,0,0,1,.53,1.81c-.92,3.07-.33,4.6,3.26,3.43A2.92,2.92,0,0,1,435,283c.12,2,1.61,1.92,3,2,1.45,2.67-.47,3.84-2.69,5.16,4.14,1.5,8.26,2.17,10.57,6.3,1.65,3,3.63,5.44,1.83,9.1-.68,1.37-.95,3.21,1.83,3.49,4.67.48,5.32,2,2.81,5.8a8.06,8.06,0,0,1-2,2.19c-3.27.38-4.11-2.76-6.1-4.23a5.47,5.47,0,0,1-1.28-2.51c-.64-3.41-3.61-5.84-3.93-9.37-2.54-6.93-8-11.53-13.86-15.07a64.07,64.07,0,0,1-13.46-10.6c-2.95-3.08-6.91-3-10.39-4.22-4.63-1.68-9.33-2.56-12.91-6.69-4.53-5.24-11-3.62-16.82-3a82,82,0,0,1-17.3,0c-10.6-1.05-21.23-.85-31.51,2.59a18,18,0,0,1-6.85,1.06c-2.17-.14-4.37-.25-5.7,2-.15.26-.59.6-.79.54-9-2.36-11.67,6.8-17.72,9.86-4.46,2.25-9.94,3.26-13.15,7.57-4.34,5.82-11.53,8.37-15.83,14.2-1.22,1.66-1.61,2.74.52,3.93a28.64,28.64,0,0,1,3.85,3.07c0,1.73-1.37,2.61-2.46,3.55-6.12,5.26-10.67,11.8-15,18.46-5.51,8.44-7.12,18.14-8.16,27.89-.46,4.27-.13,8.62-.07,12.93.07,4.05.84,7.9,3.31,11.27,1,1.33,2,2.69,1.56,4.53-2.1.46-5.12-.94-5.95,2.21-.7,2.68.75,4.77,3.17,6.13,4.24,2.4,2.61,7,3.27,10.41.91,4.82,2.72,9.54,2.46,14.64-.12,2.36,1.38,4.14,4,5,2.28.76,3.48,2.35,1.23,4.89-2.43,2.74-2.26,5.51,1.43,7.18a10,10,0,0,1,5,5.26c.56,1.18,1.23,2.88,2.2,3.16,3.28,1,4,3.33,4.57,6.21a4.64,4.64,0,0,0,2.24,3.11,12.42,12.42,0,0,1,6.23,5.37,3.08,3.08,0,0,0,4.4,1.07c2.24-1.54-.24-2.37-.89-3.43-.54-.89-2.16-1.67-.63-2.79a2.28,2.28,0,0,1,3.16.56,9,9,0,0,1,2.23,5.35c.09,4.31,3.34,6.09,6.94,3.87,1.12-.69,2-1.21,3.06-.17.85.81,1.86,1.65,1,3-1.94,3,.42,3.22,2.22,3,4.12-.49,7.32,2.88,11.39,2.44.28,0,.67,1,1,1.54-9.2-.67-18.1-2.69-27-5.06-5.49-1.45-11.09-3.3-17-2.93-4.69-4.56-8.93-9.52-13.27-14.4-10.14-11.39-14.42-25.43-18.73-39.42a151.09,151.09,0,0,1-5.71-58.52c1.45-15.68,5.48-30.8,14.27-44.87s20.73-24.82,33.18-35.23c1.82-1.51,4.22-3.06,6.44-3.21,4.78-.32,7.76-3.09,10.75-6.16C296.64,261.6,300.29,260.14,303.07,257.19Z" transform="translate(-52.53 -49.01)"/>
    <path class="cls-11" d="M517,421c-8.85,4.36-16.71,10.5-25.86,14.31-8.24,3.44-15.84,8.42-24.81,10.1s-17,5.5-25.53,8.21c-2.2.7-4.35,1.73-6.77,1.38-1.2-1.61-.24-3.06.79-4,6.05-5.33,8.67-12.92,12.69-19.52,6-9.9,11.88-20,14.81-31.4a214.85,214.85,0,0,0,4.35-22.95c5-1.27,8.08,2.38,11.05,5.07,11.29,10.27,21.7,21.48,34.08,30.59C514.11,414.5,517.16,417,517,421Z" transform="translate(-52.53 -49.01)"/>
    <path class="cls-15" d="M606,467.23c-2.48.28-4-1.46-5.54-2.86-5.22-4.74-10.33-9.59-15.48-14.4,3-4.55,4.21-9.66,4.88-15a48,48,0,0,1,1.48-7.32c4.49-15.76,6.2-31.9,6.53-48.21.1-.93,1.69-2.38-1-2.35-.72,0-1.17-1-.89-1.95,3.16-.06,6.34.13,9.47-.23,4-.46,6.07.69,6.28,5.13.47,9.94,1.63,19.85,1.92,29.79.37,12.62-1.63,25.08-3.26,37.57C609.52,454.2,607.25,460.59,606,467.23Z" transform="translate(-52.53 -49.01)"/>
    <path class="cls-16" d="M517,421c-3.08-4.71-7.25-8.36-11.64-11.76-9.4-7.28-17.63-15.87-26.27-24A46.44,46.44,0,0,0,467,377c-4.59.45-6.5-3.21-9-5.91-1.37-.56-2.12-2.37-4-2-4.29.53-7.57-2.27-11.34-3.45a21.06,21.06,0,0,1-11.38-9.89c-2.74-4.81-2.3-9.71-1-14.51,1.7-6,11.31-7.85,17.51-3.65,2.43,1.65,3.88,4.08,5.45,6.42.9,1.47,1.54,3.07,2.39,4.56,2.51,4.4,7.1,6.79,10.29,10.53.06,2.59,2.28,1.06,3.37,1.75,4.23,2.7,9.14,4.16,12.61,8.34a19.2,19.2,0,0,0,8.59,5.65c6.72,2.12,11,7.38,16.38,11.27,7.08,5.16,13.94,10.64,21.66,14.84,2.89,1.56,5.08,4.25,8.4,5.06.24,2.6,2.85,1.93,4.17,3,3,1.62,5.66,3.69,8.52,5.5,7.78,7.49,16.62,13.83,23.73,22,2.25,3.09,6.27,4.92,6.64,9.34-3.6,1.38-5.82-1.11-7.59-3.3-8.09-10-18.13-17.83-28.28-25.45-15.47-11.61-32-21.66-47.39-33.52-8.75-6.76-18.66-12-27.87-18.17-7.55-5.06-16.25-8.71-21.21-17.12-1.08-1.83-3.17-4.09-5.74-2.57-2.84,1.68-2.49,4.59-1,7.06,3.92,6.37,10.25,10,16.21,14.09,7.73,5.35,16,9.67,24,14.56,3.7,2.27,6.75,6,9.59,9.23,4.25,4.89,8.2,9.8,13.74,13.38,7.94,5.13,13.7,12.95,21.48,18.28,5.26,3.6,9.78,8.37,16,10.6-.16,2.16-1.83,1.93-3.27,2.08-3.68-.25-6.33-2.31-8.62-5l-8.12-5.3C521.24,422.31,518.32,422.64,517,421Z" transform="translate(-52.53 -49.01)"/>
    <path class="cls-17" d="M458,371.1l9,5.91c1.06,8.41-1.73,16.28-3.74,24.16-4.23,16.54-15,29.92-22.45,44.94-1.64,3.33-6,4.78-6.82,8.85-4,.41-7.76,2.75-12,2,2.82-6.12,8.6-9.72,12.72-14.77,4.71-5.79,7.21-12.64,10.88-18.89,7.84-13.4,10.69-28.49,13.16-43.57C459.21,377,458.26,374,458,371.1Z" transform="translate(-52.53 -49.01)"/>
    <path class="cls-18" d="M548.9,415.05c-3.08-1.36-5.94-3-7.76-6,11.26-8.84,21-19.61,33.31-27.09,6.52-4,13.14-8.44,21.54-6.81a2.63,2.63,0,0,0,2.7,1.6c1.68-.14.94.65.25,1.23-3.07,2.69-7.63,2.56-10.54,5.56-11.54,6.08-19.53,16.4-29.31,24.58C555.91,410.8,553,413.8,548.9,415.05Z" transform="translate(-52.53 -49.01)"/>
    <path class="cls-19" d="M403,261c-2.86-.54-5.57,0-8.45.43-5.86.82-9.75-2.63-11.53-8.28,7,1,13.37,3.83,19.78,6.57C402.86,260.17,402.93,260.6,403,261Z" transform="translate(-52.53 -49.01)"/>
    <path class="cls-20" d="M608.94,351c-1-.44-2-1.19-1.82-2.17.9-5.73-2.26-10.82-2.35-16.47-.08-4.84-2.76-9.51-1.7-14.59,2.13,6.33,2.06,13.22,4.94,19.36Z" transform="translate(-52.53 -49.01)"/>
    <path class="cls-19" d="M417.08,269c-1.45.31-3.21,1.28-4.27.77-2-1-6.82,1.84-5.79-4.09.22-1.28-2.6-3.08-4-4.64,2.65-.46,4.26,2.55,6.92,2.07C411.16,266.46,416.13,265.29,417.08,269Z" transform="translate(-52.53 -49.01)"/>
    <path class="cls-21" d="M587.94,383c2.59-4,7-4.08,11-5,.92,19.05-3,37.47-7.39,55.82-.73,3-1,6.18-1.65,9.24S588.2,448.8,585,450l-4.94-4c-1.69-3.48-5.6-5.17-7.13-8.78-1.06-1.38-.71-2.79-.19-4.26a459.27,459.27,0,0,0,14.23-48.21A4.73,4.73,0,0,1,587.94,383Z" transform="translate(-52.53 -49.01)"/>
    <path class="cls-22" d="M132.1,235.15c-4.52,3.23-7.18,8.1-10.62,12.26-8.36,10.11-18.18,18.1-31.06,21.6-1.61.43-2.19,3.22-4.43,1.78,2.73-9.89,6.32-19.5,10-29.08,5.58-14.72,10.52-29.75,17.16-44,12.63-27.06,25.37-54.21,44.27-77.66,13.42-16.67,27.33-33.37,45.14-45.35,13.56-9.12,27.76-18.45,45-19.9,10.58-.89,20.73,1.27,30.6,5,12.39,4.71,23.9,11.44,36.49,15.7,18.54,6.27,36.83,5.36,55-1.42C380,70.22,390,65.3,400.27,61.18c17.13-6.85,34.83-7.84,51.67.39,8.37,4.09,15.48,10.81,22.25,17.44,16.47,16.1,30,34.5,42.05,54.06-3,.68-4-2-5.59-3.47a253.42,253.42,0,0,0-42.63-32,168.93,168.93,0,0,0-32.38-14.48c-18-6.13-36.36-6.19-54.39.88-4.45,1.75-8.94,3.39-13.45,5-6,2.13-12.15.6-18.19,0-12.34-1.24-24.72-2-37.05-3.11-8.72-.79-16.83,0-24.75,3.24-5.74,2.33-11.6,4.55-16.57,8.45-1.58,1.24-3.19,2.41-5.31,2.51-1.94-3-2-6.63-3-10-1.16-4-3.17-6.95-7.58-7.58-4.6-.65-8.11,1.12-10.64,4.94-5.45,8.22-4.35,17.25,2.93,24.12a2,2,0,0,1,.57,1.33c-3.53,0-7,.35-10.14,2.2-1.74-1.57-1.2-3.69-1.33-5.63-.71-11.27-11.8-19-22.72-16.3-10.64,2.61-18.25,9.39-25.06,17.23-8.08,9.33-14.28,20.06-21.36,30.14C160.27,151,153,161.57,146,172.29c-3.17,4.86-6.6,9.66-8.23,15.32-2.87,10-1.57,12,8.22,13.29-4.27,2.56-5.88,6.54-6,11.3-2.24.54-3.72-1-5.43-1.95-4.61-2.45-9.33-1.46-12.27,2.62-3.9,5.39-3,14.57,1.68,19.32C126.28,234.59,129.93,232.69,132.1,235.15Z" transform="translate(-52.53 -49.01)"/>
    <path class="cls-23" d="M169.08,239q1.48,9.47,3,18.92c.26,1.68-.71,2.64-1.93,3.72-12.27,10.85-21.81,23.88-31.33,37.16-8.85,12.36-19.25,23.71-30,34.67-3.66,3.75-6.56,8.24-10.5,11.83-8.28,7.52-17,14.34-27.24,19.05-3.43,1.57-8.2.27-9.11-2.57a6.87,6.87,0,0,1,2-5.16c.89,3.82,2.76.57,3.36.13a167.74,167.74,0,0,0,24-21.53c12-13,23.56-26.38,35.29-39.6,9.08-10.25,18.3-20.41,27.15-30.88,5-5.91,8.63-12.9,13.92-18.63C169.6,244,168.89,241.45,169.08,239Z" transform="translate(-52.53 -49.01)"/>
    <path class="cls-24" d="M530.07,430.12l8.62,5c2.49,3.23,6.31,4.57,9.65,6.5,6.3,3.63,11.55,8.45,16.64,13.51,1.31,1.69.8,3.4.18,5.2a92.6,92.6,0,0,1-22.75,36.5c-5.6,5.46-11.08,11.05-16.59,16.59-3.44,3.54-7.55,6.25-11.45,9.24-.91.86-2,1.51-2.94,2.29-13.15,11.9-25.3,25.26-42.21,32-12.34,4.91-24.94,9.37-38.54,9.46-5.52,0-10.92,1.2-16.34,2-17.49,2.67-35.1,2.73-52.72,3.11-21,.45-41.85.06-62.58-3.16-28.73-4.46-54.7-16.1-79.26-31.23a106.62,106.62,0,0,1-15.94-11.74c1.61-2.43,4.15-1.61,6.34-1.69A13.3,13.3,0,0,0,221.49,504c-1.63-3.12-4.4-4.26-7.71-4.68-7.57-1-13.05,2.71-17.9,7.86a5.78,5.78,0,0,0-1.65,3.5c-.88,4-2.67,4.88-5.73,2.17-7.31-6.49-16.72-9.56-24.35-15.49s-16.17-10.5-24.37-15.54c-15.24-9.35-27.47-21.44-35.54-37.47-5.25-10.45-12-19.88-18.59-29.5-.81-1.19-2.21-2.16-1.54-3.93,8.51,2.73,16.61,6.21,23.12,12.63,12.43,12.26,22.87,26.61,38,36.07A109,109,0,0,0,178,472.94L191,476c-.16,2.59-2.28,1.89-3.73,2.15-5.6,1-11.28-.31-16.91.67-2.52.44-4.32-1.19-5.75-3.26-1.66-2.41-3.33-3.76-5.54-.21-1.46,2.35-4.12,3.32-6.88,3.5a4.22,4.22,0,0,1-4.28-2c-.95-1.88.39-3.1,1.76-4.16.65-.5,1.53-.68,2.16-1.86-3.75-2-7.4-4.18-10.3-7.41a4.23,4.23,0,0,0-5.06-1,9.59,9.59,0,0,1-4.4.69c-4-.28-5.6-2.27-4-5.87,1.17-2.62.65-3.65-2-4.15-1-.18-2.3-.47-2.54-1.37-1.39-5.23-6-7.49-9.48-10.87-.55-.54-.69-1.64-1.79-1.05a2.14,2.14,0,0,0-1.19,1.54c-.14,1.15.85,1.27,1.62,1.41,4.17.72,4.82,3.71,4.41,7.12-.51,4.16.31,7.21,5,8.26,2.28.52,3.49,2.43,4.29,4.54.71,1.88,1.37,3.9,3.16,5,5.75,3.43,10.15,8.56,15.75,12.16.56.36,1.11,1,1.72,1,7,0,11.2,4.35,15.79,8.81,3.43,3.34,9.07,3.55,12.32,8,1.72,2.34,8,.6,10.08-2.33s4.4-4.46,7.94-4.14c1.74.16,3.24-.62,4.81-1.16,1.84-.65,3.77-.73,5.15.72,2.72,2.87,5.28,2.29,7.79-.06s5.35-3.49,8.66-2.17c2.34.92,3.41-1.9,5.46-1.5,6.41,1.44,12.46,3.93,18.51,6.38,1.36.55,2.61,1.63,1.44,3.47-3.18,4-7.51,6.93-10.32,11.41-3.45,5.5-3.68,11.67-4.75,17.67-.39,2.19,1.18,4.15,2.75,5.68A43.47,43.47,0,0,0,254.47,543c7.15,1.5,14,4.08,21.3,5.12,8.92,1.27,17.78,2.62,26.81,2.48,10.49-.16,20.95.43,31.43.87,23.58,1,46.8-2.19,69.91-6.7,10.17-2,20.26-3.9,29.78-8.17a57.92,57.92,0,0,0,20.84-16c7.94-9.5,4.81-21.88-6.42-27.1-1.49-.7-3.18-1.11-4.1-2.69,7.74-5.37,17.11-7.65,24.8-13.11,1.56-1.1,2.41-.14,3.14,1.13-.6,3.74-3.49,6.32-4.85,9.72-2.07,5.19-2.63,10.31-.43,15.52,3.17,7.5,10.64,10.92,18.46,8.62a29.2,29.2,0,0,0,16.64-12,20.25,20.25,0,0,0-3.55-27.06c-2.33-2-4.86-3.46-8.07-3.41-1.48,0-3,0-4.19-1.21-1.16-.3-2-.76-.51-1.77,11.65-8.06,21.69-18.12,33-26.67C522.55,437.46,527,434.46,530.07,430.12Z" transform="translate(-52.53 -49.01)"/>
    <path class="cls-25" d="M525,513c6.6-6.78,13.3-13.46,19.79-20.34,9.48-10.07,15.7-22.06,20.09-35.06a9.24,9.24,0,0,0,.13-2.48A179.41,179.41,0,0,1,583,469c-1.31,6.06-5.94,10.22-9.55,14.58-7.45,9-12.59,19.18-18,29.3-3.51,6.52-6.91,13.2-11.79,18.87a15.86,15.86,0,0,0-3.81,6.31c-.54,2-1.85,3.8-4.22,3.47-2.58-.37-2.63-2.52-2.58-4.64.13-5.82.23-11.63-1.85-17.23-.5-1.35-.19-3.45-2.23-3.26s-2.92,2-2.89,4a90.76,90.76,0,0,1-2.13,21.21c-1.71,7.65-2.35,15.86-8.91,21.92a7,7,0,0,1-1.8-5.68c.66-9.68,1.86-19.33,1.83-29,0-2.16,0-4.15-3-3.91-.3-.22-.4-.44-.31-.67s.2-.34.3-.34a1.82,1.82,0,0,1,2-2c4.27-1.66,4.46,1,4.18,4-.58,6.09.61,12.09.72,18.17A195.57,195.57,0,0,1,522,520.22,16.11,16.11,0,0,1,525,513Z" transform="translate(-52.53 -49.01)"/>
    <path class="cls-20" d="M512,524c0,.34,0,.68,0,1a58.05,58.05,0,0,0-2,14.18,122.16,122.16,0,0,1-3.91,30.43c-.4,1.51-.54,3.16-2.47,3.15s-1.56-1.86-1.8-3c-1.32-6.3-2.54-12.62-3.81-18.92a17.57,17.57,0,0,0-.84-3.34c-.3-.69-1-1.65-1.57-1.7-1.24-.12-1.35,1.09-1.57,2.08-1.63,7.24-3.62,14.42-4.86,21.72-1.14,6.77-5.44,12-7.84,18.17-.62,1.59-3,3.61-5.29,2.84-2.14-.73-2-3.18-2-5.19-.25-6.62.77-13.31-1-19.86-.25-1-.39-2-.68-2.89-.48-1.55-.68-3.7-2.92-3.34-2.07.34-1.37,2.39-1.38,3.75-.05,10-.12,20,0,30,.05,3.83-2,5.38-5.28,5.93-3.65.6-5.8-.79-5.76-4.77,0-3.33.1-6.67-.08-10-.09-1.76-.31-4.07-2.81-3.88-2.18.16-2.1,2.22-2.11,3.9,0,3,0,6,0,9,0,1.68,0,3.32-1.35,4.62-2.27,2.17-4.47,5.21-8,3.73-3.77-1.58-2.65-5.17-2.24-8.31.83-6.31-1.53-12.38-1.55-18.64,0-1.23-1.1-1.59-2.18-1.44-1.56.2-1.67,1.46-1.63,2.64a140.13,140.13,0,0,1-.95,17.37c-.62,6.62-1.5,7.54-8.13,7.87-6.46.31-12.18,3.41-18.1,5.67-1.31.51-2.31,2.21-3.93,1.42s-1.92-2.52-1.93-4.29c0-6.61.72-13.3-2.08-19.61-.58-1.3-.7-3.32-2.72-2.88-1.73.37-1.32,2.24-1.12,3.41a81.06,81.06,0,0,1,0,23.74c-.34,2.71-.9,4.19-3.87,4.7S386.28,615,383,615c-4.21,0-6.18-1.62-6-5.92.23-6.49.25-13-2-19.22-.71-2-.89-4.81-3.6-4.66-3.12.16-2.3,3.08-2.41,5.12s.07,4.35-.22,6.48a2.49,2.49,0,0,1-2.65,2.44c-1.57-.17-2.15-1.34-2.14-2.88,0-3.33,0-6.66,0-10,0-1-.2-2.17-1.51-2.12s-1.42,1.19-1.42,2.22c0,3.83-.29,7.68,0,11.48.38,4.48-1.22,8.51-2.19,12.68a3.61,3.61,0,0,1-3.42,3.13c-1.89,0-2.13-1.67-2.69-3.09A55.8,55.8,0,0,1,349,591.42c0-1,.55-2.74-1.09-2.85s-1.9,1.61-1.84,2.91c.24,4.79-.67,9.62.69,14.4.53,1.86.26,4,.22,6-.05,2.34-1.61,3.54-3.64,3-9.32-2.45-19.08-.78-28.45-3.54-4.95-1.45-10.46-1.24-15.66-2.3-3-.6-4.44-2.27-4.15-5.19.37-3.78-1.36-7.93,1.62-11.37.48.26.84.34,1,.56,1,1.39-.72,4.61,1.77,4.46,2.8-.15,1.33-3.18,1.5-4.93a36,36,0,0,0,0-7.48c-.2-1.89.86-5.37-3.65-2.39-3.83,2.53-4.91,2.69-5.29,8.3-.26,4-.64,7.91-1,11.86-.23,2.34-1,4.13-3.92,4.15s-3.73-1.7-4-4.07c-.11-1,0-2-.06-3-.13-1.72.63-4.18-1.89-4.47-1.95-.23-2.86,1.89-3.94,3.36-1.51,2,.38,6.88-4.7,6-1.75-.32-5-8.48-4.14-11.12,1.26-4.06-1-7.81-.59-11.76.08-.93-.49-2.53-2-2.41s-1.58,1.44-1.72,2.64c-.66,5.58-1.31,11.16-2,16.73-.52,3.88-3.05,6.08-6.74,6s-6,1-6.7,4.87c-.19,1-.67,2.62-2,2.54-1.7-.1-1.7-2-1.86-3.14-1-7-1.82-14.08-2.62-21.13-.19-1.65.09-3.34-.09-5s-.41-3.68-2.51-3.72c-1.83,0-1.24,2-1.7,3.16-1.37,3.37-.47,6.92-.73,10.38-.28,3.62-.9,7-5.17,8.08-2.36.58-2.5,2.91-3.55,4.52s-1.6,3.62-3.92,3.09a4.35,4.35,0,0,1-3.29-4.51c-.09-4.83-.5-9.73.16-14.47.92-6.65,1.33-13.19-.11-19.76-.57-2.62,1.72-5.14.08-7.77-.54-.86.18-2.69-1.65-2.48-1.08.12-1.26,1.32-1.55,2.31a95.66,95.66,0,0,0-4,25.92c0,2.14.38,4.34-.58,6.41-.46,1-.35,2.6-1.89,2.57s-2.19-1.63-2.29-2.86a84.06,84.06,0,0,1-.19-9c.06-2.87-.52-3.75-4-3.69-3.66.06-8.07.19-11-3.1-1.24-1.39-2.69-1.16-4.12-1.09-3.4.16-6.68-.93-8.52-3.41-3.71-5-8.64-8.7-12.67-13.32a7.15,7.15,0,0,1-1.71-5.49c.43-8.62-.92-17.29.9-25.87.27-1.28.76-3.38-1.39-3.66-1.89-.25-2.44,1.37-2.48,3-.07,2.53-.5,3.62-3.55,2.3-2.19-.94-2.21,1.56-2.5,3.19-.48,2.72,1.74,7.48-3.54,7-4.67-.41-2.22-4.83-2.28-7.3-.15-5.61.55-11.24.81-16.87.07-1.42.5-3.5-1.33-3.84s-1.32,2-2,2.94c-2.34,3.18-1,7.15-2.47,10.56-.86,2.08-2,3.22-3.26.9-6.2-11.29-15.25-20.63-21.25-32.17-2.62-5.05-8.09-9.34-14.1-11.69-1.46-.56-2.62.21-3.75.85-5.78,3.27-9.88,1.78-12.75-4.62-3-6.71-4.18-13.94-6-21-2.51-9.55-2.74-19.27-3.07-29-.26-7.62-4-14.26-7.58-20.83-.48-.87-.86-1.8-1.29-2.7a32.29,32.29,0,0,1,10,5c10,12.65,17.73,26.73,25.82,40.6,6.72,11.55,16.53,20.22,27.66,27.42q17.92,11.59,36,23c5.3,3.34,11.29,5.54,15.8,10.23,1.84,1.9,4,1.87,3.69-1.87-.12-1.51-.15-3.11,2-3.39.39.33.85.72.85,1.19,0,7,3.79,12.17,8.17,17.07,6.94,2.83,12.05,8.45,18.47,12.15,12,6.94,24.08,13.66,37.43,18,6.39,2.06,12.26,5.88,18.9,7.45a267.17,267.17,0,0,0,39.57,6.48c10.59.86,21.28,1.31,31.75,1.23,12.86-.1,25.84.17,38.75-1.16,8.06-.83,16.14-1.27,24.22-2.19,18.08-2.06,36.31-3.37,53.35-10.31a90.83,90.83,0,0,0,30.88-21.3C501.67,531.09,507.07,527.76,512,524Z" transform="translate(-52.53 -49.01)"/>
    <path class="cls-20" d="M608.82,358v7.43c-4-4.08-7.44-7.24-10.18-11.12-8.27-11.73-18.27-22.18-25.54-34.63-4.46-7.62-8.64-15.42-12.93-23.14-5-9.09-11.68-17.05-17.67-25.47-8.28-11.64-19-20.95-29.17-30.77-5.18-5-9.49-10.89-15.26-15.34-3.62-2.79-1.86-7.08-1.89-10.77,0-1.29.71-2.58.74-3.88.07-2.44.8-5.72-1.88-6.71-2.88-1.06-2.75,2.59-3.9,4.15-4.59,6.24-6,6.34-13.16,2.06-5.33-3.18-11-5.88-16.5-8.71s-5.91-4.34-2.88-9.35a28.32,28.32,0,0,0,3.77-11.24c.14-1,.55-2-.41-2.71-1.29-1-2.08.1-3,.81-3.48,2.7-6.52,5.86-11,7.29s-8.62,2-13-1c-3.6-2.51-8.29-2.95-12.58-3.65s-5.57-2-4.88-6.51c1.07-7.07,4.32-13.25,7.17-19.48,3.14-6.84,3.82-14.22,6.35-21.13,5.62,4.51,12.08,7.78,18.55,10.59,12.63,5.47,23.49,13.61,34.64,21.32,6,4.13,12.29,7.67,18.07,12.23,6.4,5.06,11.17,11.22,16.34,17.21,5.4,6.25,10.42,12.81,15.88,19,4.74,5.39,8.06,12,11.83,18.26,8.15,13.41,16.55,26.69,24.17,40.41,8.58,15.44,18.25,30.38,24.45,47,3.62,9.74,6.44,19.78,9.91,29.58C605.84,352.55,606.37,355.76,608.82,358Z" transform="translate(-52.53 -49.01)"/>
    <path class="cls-20" d="M427,133.07c-7.42,13.89-15.72,27.15-26.94,38.38a6.21,6.21,0,0,1-7.39,1.13c-4.27-2.14-9-2.09-13.39-3.31a11.57,11.57,0,0,0-8.62,1.16c-4.33,2.3-7.6-.05-6.52-4.86,2.73-12.17,1.55-24.46,1.9-36.7,0-1.47.49-2.92.67-4.39.37-3.09,1-6.23-2-9.83-.63,5.13-1.19,9.4-1.68,13.67-1.6,14-3.29,27.88-8.92,41-1.45,3.38-8.14,7.86-11.76,7.74-3-.09-3.35-2.07-3.35-4.45,0-1.23.48-3.1-1.38-3.22s-1.44,1.81-1.64,3c-.59,3.6-2.68,5.08-6.31,4.69-5.6-.61-10.61,1.58-15.77,3.31-4.47,1.49-9.28,1-13.8.31-2.78-.45-2.93-3.85-3-6.24-.34-13.25-3-26.26-4.37-39.39-.4-3.77.25-9.5-5.7-11-.93-2.12-1.71-4.22,2-2.57a2.92,2.92,0,0,0,3.22-.23c7.74-5.46,16.54-7.5,25.66-9.77,10.5-2.62,20.82-3.32,31.41-3.45,11.1-.15,21.24,4.65,32,6.1C398.32,116.43,411.92,126.41,427,133.07Z" transform="translate(-52.53 -49.01)"/>
    <path class="cls-26" d="M146,200.9c-2.81,1.07-5.73,2.49-8.38-.09s-2.79-5.77-2.28-9.24c1-7.15,4.89-13,8.71-18.76,11.68-17.54,23.65-34.89,35.57-52.26,6.51-9.5,13.55-18.67,23.74-24.43,12.51-7.07,20.32-6.76,29.21,1.1,5.47,4.82,5.63,11.3,5.54,17.86-5.21,17.88-20,25.88-34.86,33.82-9.41,5-18.24,10.85-24.53,19.78-5.6,8-13.24,13.89-20.42,20.24C154,192.73,151.79,198.66,146,200.9Z" transform="translate(-52.53 -49.01)"/>
    <path class="cls-20" d="M286.05,125.07c-1.54,14.14-4.59,28-7.49,41.9-1.35,6.45-1.5,13.14-4.38,19.27-1.05,2.24-2.26,4.6-4.69,4.61-6.92,0-12,4.54-17.64,7.26-8.31,4-16.88,7.83-24,14a4.45,4.45,0,0,1-7-1c-3.81-6.24-8.27-12.21-10.51-19.24-.85-2.67-2.13-2.93-4.25-2.8,11.78-10.61,22.59-22.23,35.05-32.13,9.61-7.62,19.12-15.36,29.13-22.43C275.23,131,280.76,128.19,286.05,125.07Z" transform="translate(-52.53 -49.01)"/>
    <path class="cls-27" d="M206,192a233.74,233.74,0,0,1,6.86,25.79c.57,2.83.46,5-2,6.94-7.9,6.14-15.56,12.58-23.55,18.59-4.41,3.32-7.4,2.36-9.89-2.64-1.25-2.5-3-4.81-3.36-7.7,3,1.35,3.74-1.28,4.87-2.86C188,217.49,197,204.75,206,192Z" transform="translate(-52.53 -49.01)"/>
    <path class="cls-28" d="M248.25,112.88c-6.71-3.12-9.72-10-7.9-18.08,2.22-9.75,6.52-13.9,14.06-13.81,4.84.06,7.66,2.78,9.22,6.91a34.5,34.5,0,0,1,2.3,12.12C262.74,108,257.41,113.09,248.25,112.88Z" transform="translate(-52.53 -49.01)"/>
    <path class="cls-29" d="M132.1,235.15c-8.23.12-12.55-3.6-14-12a14.07,14.07,0,0,1,9.79-15.44c5.14-1.44,8.27,2.4,12.05,4.53C145.67,221.83,142.56,230.9,132.1,235.15Z" transform="translate(-52.53 -49.01)"/>
    <path class="cls-30" d="M443,364.8c4,.52,7.39,2.72,11,4.3,2.18,2.71,0,5.59-.77,7.57-3.27,8.57-3.81,17.7-6.29,26.38-2.29,8-6.1,15.43-9.89,22.83-4.16,8.11-8.54,16.27-16.64,21s-15.74,10.8-26.57,10.5c-6.66-.18-13.58,1.67-20.52,1.66-11.85,0-22-4.26-31.18-11.45-8.91-7-19.14-12.09-28.07-18.89-6.63-5-14.61-9.9-15.25-20.22-.53-8.62-6.67-15-11-21.84-5.2-8.21-8-16.67-7.72-26.23a19.87,19.87,0,0,1,4.21-10.92c4.84-6.48,6.39-14.1,8.68-21.48,3.27-10.52,8.06-19.84,19-24.22a40.8,40.8,0,0,1,10.28-2.69A50.68,50.68,0,0,0,345,292.39a2.88,2.88,0,0,0,1.09-1c3.6-8.15,12.09-8.48,18.69-9.81a65,65,0,0,1,21.66-.75c3.92.55,8.38-.89,11.89.44,7.66,2.89,15.84,3.4,23.51,6.59,6.86,2.86,11.3,7.49,15.75,12.72.26.31.92.28,1.4.41a17.79,17.79,0,0,1,4.89,9,44.06,44.06,0,0,0-13.82-3.54,25.4,25.4,0,0,0-11-4.17c-8.3-1.38-16.32-4.33-24.76-5-8.87-.7-17.52-3.51-26.53-2.85a24.4,24.4,0,0,0-15.05,6.92c-8.37,4.61-17.85,7-25.18,13.85a25.19,25.19,0,0,0-8.16,16.95c-1.07,11.47,2.87,22,6.67,32.49,2,5.4,2.94,11.33,6.82,15.94,8.16,12.74,19.76,20.92,33.44,27.2,17.72,8.15,33.08,2.42,48.91-5.29,11.81-5.75,15.24-16.91,20.17-27.32a7.12,7.12,0,0,0,.23-4.43C437.16,367.67,438,363.71,443,364.8Z" transform="translate(-52.53 -49.01)"/>
    <path class="cls-31" d="M246.25,384.89c-9.31-10.63-6.69-23.17-5.19-35.29,2.23-18.18,11.8-32.23,26-43.34,9.15-2,10.78-1.16,14,7.35a6,6,0,0,0,1.24,2.06c6,6.13,6.09,10.58.19,17.35-4.59,5.27-9.3,10.49-9.17,18.1a43.65,43.65,0,0,0,.81,9.86c2.82,11-4.88,16.27-11.75,21.94C257.49,387,251.78,385.44,246.25,384.89Z" transform="translate(-52.53 -49.01)"/>
    <path class="cls-26" d="M444,490.83c20,3.82,19.34,22.65,10.15,32.51-11.49,12.31-26,18.52-42.21,21.52-10.59,2-21.17,4.12-31.84,5.41-18.15,2.18-36.33,3.84-54.7,2.08-8.91-.85-18-.31-26.94-.34a119.13,119.13,0,0,1-32.76-4.43c-11-3.22-23.25-4.39-32.12-13.39-3.43-3.49-5.77-6.24-4.76-12,1.62-9.19,4.55-17.11,12-23a10.81,10.81,0,0,1,4.17-2.37c10.4-3.94,20.3-.14,30.11,2.37,23.86,6.1,48,9.72,72.65,9.4a195.7,195.7,0,0,0,63.64-11.94A100.68,100.68,0,0,1,444,490.83Z" transform="translate(-52.53 -49.01)"/>
    <path class="cls-10" d="M225.07,487c-1.63,2.72-3.25,4.64-6.88,2.33-1.94-1.22-4,.17-5.77,1.7-3.06,2.58-6.39,6.35-9.95.42a2.41,2.41,0,0,0-1.27-.74c-3.2-1-5.16,3-8.87,1.76-3.05-1-5.21,1.43-6.45,4.71-1.32,3.47-5.21,1.75-7.84,2.64A4.56,4.56,0,0,1,172.3,497c-.75-2.05-2-2.55-3.89-3.19-4.39-1.48-8.84-3.16-10.94-7.94a4.17,4.17,0,0,0-4.36-2.76c-6.36,1.06-10.38-3.29-14.42-6.62a69.07,69.07,0,0,0-8-6.28,10.75,10.75,0,0,1-5.52-7.24,4.5,4.5,0,0,0-4.42-4c-4.69-.39-5.39-3.67-5-7.44.46-4,1.35-7.86-4.92-7.72-1.87.05-3.19-1.53-1-3.23,1.39-1.05,1.87-2.63,3.44-4.87.68,7.53,10.32,7.13,10.64,14.7.1,2.29,3.18,1.06,4.65,1.95,1.26.77,4.31.78,2,3.61-1.2,1.44-3.62,2.69-1.75,4.95,1.58,1.9,4.56,1.74,6,.78,4.54-2.94,6.85-.39,9.49,2.68a16.12,16.12,0,0,0,8,4.85c1,.28,2.51.65,2.26,2.18-.17,1.06-1.26,1.43-2.32,1.55-1.95.23-4.25,1.17-3.54,3.15.8,2.23,3.46,2.42,5.56,1.18,1.8-1.07,3.87-1.26,4.64-4.38,1.07-4.26,4.86-1.07,5.46.23,2.43,5.17,6,4.65,10.67,4,5.25-.72,10.74.86,16-1.12,11.62.72,21.65,7,32.77,9.5C224.3,485.65,224.65,486.47,225.07,487Z" transform="translate(-52.53 -49.01)"/>
    <path class="cls-26" d="M486,469c9.43-.16,15.37,3.09,18.19,10,4.41,10.74,2.65,20.52-5.56,27.52-5.85,5-12.14,9-20.65,8.13-10.46-1-16.2-13.85-13.58-22.22A34.54,34.54,0,0,1,472,478.85C476.57,475.49,480.25,470.8,486,469Z" transform="translate(-52.53 -49.01)"/>
    <path class="cls-19" d="M466,359.11a22.09,22.09,0,0,1-11.08-10c4.46-2.82.72-5.43-.21-8.11,2.11-6.88-.89-12.3-5-17.41.89-2.12-1.58-4.37.24-6.46a14.45,14.45,0,0,1,1.19-2.65c.85-1.18,2.42-2.16,1.48-3.85-1.29-2.34-2.45.28-3.7.28-4.87,0-3-3.8-2.64-5.76,1.19-5.77-1.43-10.61-7.31-12.25-3-.84-3.47-1.09-6.32-3.68,3-.11,5.34-.91,5.34-4.13,5.67,4.2,8.87,10.42,12.41,16.16a135.79,135.79,0,0,1,14.14,32.57c2,6.71,2.32,13.94,3.3,21A4.79,4.79,0,0,1,466,359.11Z" transform="translate(-52.53 -49.01)"/>
    <path class="cls-19" d="M427,275c-2.4,0-4.5.46-7.22-.51-4.28-1.52-3.07-3.05-1.77-5.47A15.21,15.21,0,0,1,427,275Z" transform="translate(-52.53 -49.01)"/>
    <path class="cls-19" d="M435,283a17.81,17.81,0,0,0-3.36.34c-1.38.39-2.49,2.48-4.16.45-1.37-1.67-.89-3.27,0-4.93A7.93,7.93,0,0,0,428,277C431.65,277.48,433.19,280.41,435,283Z" transform="translate(-52.53 -49.01)"/>
    <path class="cls-32" d="M430.93,306c5-1,9.42.19,13,4,.35.65.69,1.31,1,2,2.54,5.16,0,9-3.3,12.61a27.94,27.94,0,0,1-14.33,4.61c-2.43-.23-4.54-1.35-6.7-2.37a4.75,4.75,0,0,1-1.63-1.76C415.52,314.56,420.07,307.3,430.93,306Z" transform="translate(-52.53 -49.01)"/>
    <path class="cls-33" d="M440.76,323.86c2.94-3.42,4.89-7.18,4.19-11.88l5,5.11c-1.28,2,3.35,4,0,6C447,324,444.12,326.85,440.76,323.86Z" transform="translate(-52.53 -49.01)"/>
    <path class="cls-19" d="M403.41,265.59a1.81,1.81,0,0,1-1.85,1.32c-.85,0-1.8-.28-1.87-1.22-.09-1.26.95-1.56,2-1.54A1.7,1.7,0,0,1,403.41,265.59Z" transform="translate(-52.53 -49.01)"/>
    <path class="cls-34" d="M440.76,323.86c3.18.9,6-1.86,9.23-.8,6.22,4.95,8.33,12.47,5.06,18,1,2.24-.58,3.09-2.12,4-1.84-.81-2.28-2.78-3.37-4.2-3.45-4.52-8.27-4.09-13-3.79a5.67,5.67,0,0,0-5.19,4.66c-1.49,6.33-.79,12.26,3.76,17.52,2.25,2.59,5.51,3.37,7.89,5.55-3.71.45-4.71,4.1-7.17,6-2.87,4.39-7.13,6.14-12,5.12-4.59-1-6.57-4.86-7.34-9.18-1.11-6.23-1.92-12.51-2.74-18.77a12.67,12.67,0,0,1,1.27-7.29c3-2.9,7.47-4.47,8.17-9.37a5.63,5.63,0,0,1,3.84-3A37.43,37.43,0,0,0,440.76,323.86Z" transform="translate(-52.53 -49.01)"/>
    <path class="cls-35" d="M587.94,383a40.93,40.93,0,0,1-2.8,15c-4,10.52-5.77,21.73-9.91,32.25-.87,2.2-2.81,4.22-2.34,6.93-6.38-5.76-12.8-11.47-19.12-17.29-1.67-1.55-3.85-2.62-4.87-4.82,7.11-6.1,14.7-11.73,21.18-18.43C575.44,391.09,580.91,386.13,587.94,383Z" transform="translate(-52.53 -49.01)"/>
    <path class="cls-36" d="M452.93,345.06l2.12-4c4.29,1.62,3.09,5.44,2.71,8.3-.29,2.17-1.8-.69-2.88-.33A6.35,6.35,0,0,1,452.93,345.06Z" transform="translate(-52.53 -49.01)"/>
    <path class="cls-37" d="M204.06,525.18c-7.51-3.87-9.68-10.37-9-18.26,3.55-5,8.13-8.3,14.43-9,12.49-1.32,16.36,6.72,13.95,17-1.69,7.22-5.21,9.66-12.91,10.09C208.36,525.16,206.21,525.14,204.06,525.18Z" transform="translate(-52.53 -49.01)"/>
    <path class="cls-38" d="M481.13,517c6.23.21,13.18,5.4,13.14,9.8-.07,6-6,12.28-11.48,12.16-5.64-.13-11.09-6.37-10.92-12.52C472,520.87,476,516.82,481.13,517Z" transform="translate(-52.53 -49.01)"/>
    <path class="cls-20" d="M525,513c-3.24,11.17-3.38,22.9-5.24,35.07-2.75-2-3-3.78-2.72-5.54.89-6-1.88-12.08.16-18.19.88-2.62-1.69-2.15-3.21-2.36Z" transform="translate(-52.53 -49.01)"/>
    <path class="cls-9" d="M538.55,519.76a22.92,22.92,0,0,1-1.14,12.76C535.59,529.49,535.8,526.35,538.55,519.76Z" transform="translate(-52.53 -49.01)"/>
    <path class="cls-9" d="M393,590.38c-.29,4.43-.66,9.88-1,15.32-.07,1-.31,2.1-1.66,1.93s-1.4-1.4-1.16-2.32c1.75-6.73.42-13.57.87-20.34.09-1.36-.66-3.58,1.44-3.63s1.41,2.19,1.52,3.54S393,587.87,393,590.38Z" transform="translate(-52.53 -49.01)"/>
    <path class="cls-9" d="M485.9,552.66c0,5.6.09,11.19-.06,16.78,0,1.4-.59,3.48-2.4,3.19-2.46-.39-.95-2.27-.64-3.55,1.28-5.4,1.23-11,1.27-16.5Z" transform="translate(-52.53 -49.01)"/>
    <path class="cls-39" d="M415.88,340.33c-2.25,9.67,1.23,18.92,2.35,28.31.64,5.38,6.48,7.74,11.54,5.47,2.08-.94,4-2.18,6.05-3.28,2.95,1.67,1.51,4.46.54,5.83-2.26,3.2-3.48,6.76-4.79,10.29-4.63,12.44-15.69,17.11-26.52,21.76a53.32,53.32,0,0,1-21.46,4.53c-7.65,0-14-2.41-20.46-5.88-6-3.25-12.59-5.4-17.84-10.22a56.72,56.72,0,0,1-4.86-4.82c-3-3.58-5.66-7.51-8.45-11.3,11.11-1.37,17.92-9.1,24.63-16.85,7.86-9.08,7.17-20,6.9-31.07s-4.38-20.5-10.51-29.34a4.82,4.82,0,0,1-1-2.76c3.84-5.8,9.76-7.65,16.17-7.91,9.72-.4,19.13,2.8,28.66,3.37,8.56.51,16.15,4.46,24.65,4.8,3.23.12,7.54.74,9.45,4.73-.23.22-.44.53-.72.64-11.15,4.48-12.69,7.3-10.14,18.62-1.44.64-2.91.05-4.37.11-3.17.14-5.33,1.71-6.13,4.73s-.19,5.52,2.63,7.27C413.54,338.19,415.36,338.48,415.88,340.33Z" transform="translate(-52.53 -49.01)"/>
    <path class="cls-40" d="M352,301c6.27,8.06,12,16.18,12.18,27.2.13,7.23.94,14.36.23,21.69-.83,8.46-5.78,14.22-10.88,19.92-4.18,4.68-9.56,8.08-14.92,11.41-2.35,1.46-4.48,1.93-6.63-.2-6.32-8.62-8-19.06-11.31-28.87a66.49,66.49,0,0,1-2.81-15.41c-1.47-16.39,10.22-26.31,22.92-31.27C344.51,304,347.57,300.66,352,301Z" transform="translate(-52.53 -49.01)"/>
    <path class="cls-31" d="M285,368.81c.78-5.15,1.57-11.55,2.74-17.88,1.24-6.66,6-11,11.08-14.75,4.38-3.24,10-1.19,12.27,3.89,1.74,3.94,3.5,7.75,6.34,11.16,2.59,3.1,3.15,7.18,2.77,11.3a5.5,5.5,0,0,1-3.42,5.05c-5.3,2.17-9.42,6.11-14.11,9.18a37.87,37.87,0,0,1-3.37,2.1C290.74,383.29,284.88,379.67,285,368.81Z" transform="translate(-52.53 -49.01)"/>
    <path class="cls-41" d="M313.82,395c-5.15-.07-8.64-3.47-8.38-8.38.51-9.71,5.91-12.92,12.83-13.64,4.9-.51,8.6,4.59,8.46,10.8S320.56,395.1,313.82,395Z" transform="translate(-52.53 -49.01)"/>
    <path class="cls-42" d="M415.88,340.33c-7.18-2.6-8.95-4.92-7.88-10.31s5.83-7.17,12.07-4.77l.74.75a5.81,5.81,0,0,1,3.28,5.1C423.92,336.45,420.8,339.19,415.88,340.33Z" transform="translate(-52.53 -49.01)"/>
    <path class="cls-39" d="M424.09,331.1l-3.28-5.1,6.19,2.33Z" transform="translate(-52.53 -49.01)"/>
  </g>
</svg>
