<svg id="Component_2_1" data-name="Component 2 1" xmlns="http://www.w3.org/2000/svg" width="376" height="67" viewBox="0 0 376 67">
  <defs>
    <style>
      .cls-1 {
        fill: #7160a7;
      }

      .cls-2 {
        isolation: isolate;
      }

      .cls-3 {
        fill: #fff;
      }
    </style>
  </defs>
  <path id="Rectangle_17" data-name="Rectangle 17" class="cls-1" d="M33.5,0h309A33.5,33.5,0,0,1,376,33.5h0A33.5,33.5,0,0,1,342.5,67H33.5A33.5,33.5,0,0,1,0,33.5H0A33.5,33.5,0,0,1,33.5,0Z"/>
  <g id="DOWNLOAD_THE_APP" data-name="DOWNLOAD THE APP" class="cls-2">
    <g class="cls-2">
      <path class="cls-3" d="M63.83,25.6h7a9.79,9.79,0,0,1,4.43,1,7.13,7.13,0,0,1,3,2.69,7.6,7.6,0,0,1,1.06,4,7.6,7.6,0,0,1-1.06,4.05,7.07,7.07,0,0,1-3,2.69,9.79,9.79,0,0,1-4.43,1h-7Zm6.82,12.47a5.2,5.2,0,0,0,3.68-1.28,4.54,4.54,0,0,0,1.38-3.49,4.54,4.54,0,0,0-1.38-3.49,5.2,5.2,0,0,0-3.68-1.28H67.39v9.54Z"/>
      <path class="cls-3" d="M85.13,40.23a7.65,7.65,0,0,1-3-2.85,8.18,8.18,0,0,1,0-8.16,7.65,7.65,0,0,1,3-2.85,9.57,9.57,0,0,1,8.64,0,7.79,7.79,0,0,1,3,2.85,8.12,8.12,0,0,1,0,8.16,7.79,7.79,0,0,1-3,2.85,9.57,9.57,0,0,1-8.64,0Zm6.79-2.63a4.55,4.55,0,0,0,1.73-1.75,5.55,5.55,0,0,0,0-5.1A4.55,4.55,0,0,0,91.92,29a4.84,4.84,0,0,0-2.46-.63A4.91,4.91,0,0,0,87,29a4.55,4.55,0,0,0-1.73,1.75,5.55,5.55,0,0,0,0,5.1A4.55,4.55,0,0,0,87,37.6a4.91,4.91,0,0,0,2.47.63A4.84,4.84,0,0,0,91.92,37.6Z"/>
      <path class="cls-3" d="M123.34,25.6l-5,15.4h-3.83l-3.39-10.43L107.58,41h-3.8L98.72,25.6h3.69l3.48,10.82,3.63-10.82h3.3l3.52,10.91,3.59-10.91Z"/>
      <path class="cls-3" d="M139.44,25.6V41h-2.93l-7.67-9.35V41h-3.52V25.6h2.94L135.92,35V25.6Z"/>
      <path class="cls-3" d="M143.09,25.6h3.57V38.1h7.72V41H143.09Z"/>
      <path class="cls-3" d="M159.25,40.23a7.65,7.65,0,0,1-3-2.85,8.18,8.18,0,0,1,0-8.16,7.65,7.65,0,0,1,3-2.85,9.57,9.57,0,0,1,8.64,0,7.86,7.86,0,0,1,0,13.86,9.57,9.57,0,0,1-8.64,0ZM166,37.6a4.45,4.45,0,0,0,1.72-1.75,5.48,5.48,0,0,0,0-5.1A4.45,4.45,0,0,0,166,29a4.91,4.91,0,0,0-2.47-.63,4.84,4.84,0,0,0-2.46.63,4.55,4.55,0,0,0-1.73,1.75,5.55,5.55,0,0,0,0,5.1,4.55,4.55,0,0,0,1.73,1.75,4.84,4.84,0,0,0,2.46.63A4.91,4.91,0,0,0,166,37.6Z"/>
      <path class="cls-3" d="M184.61,37.7h-7.15L176.09,41h-3.65l6.86-15.4h3.52L189.71,41H186ZM183.48,35,181,29.1,178.6,35Z"/>
      <path class="cls-3" d="M191.32,25.6h7a9.79,9.79,0,0,1,4.43,1,7.13,7.13,0,0,1,3,2.69,7.6,7.6,0,0,1,1.06,4,7.6,7.6,0,0,1-1.06,4.05,7.07,7.07,0,0,1-3,2.69,9.79,9.79,0,0,1-4.43,1h-7Zm6.81,12.47a5.21,5.21,0,0,0,3.69-1.28,4.54,4.54,0,0,0,1.38-3.49,4.54,4.54,0,0,0-1.38-3.49,5.21,5.21,0,0,0-3.69-1.28h-3.25v9.54Z"/>
      <path class="cls-3" d="M218.9,28.5H214V25.6h13.42v2.9h-4.92V41H218.9Z"/>
      <path class="cls-3" d="M243.43,25.6V41h-3.56V34.69h-7V41h-3.56V25.6h3.56v6.07h7V25.6Z"/>
      <path class="cls-3" d="M259,38.14V41H247.08V25.6h11.64v2.86h-8.09V31.8h7.15v2.78h-7.15v3.56Z"/>
      <path class="cls-3" d="M278.21,37.7h-7.15L269.7,41h-3.65l6.86-15.4h3.52L283.32,41h-3.74ZM277.09,35l-2.44-5.89L272.21,35Z"/>
      <path class="cls-3" d="M295.14,26.28a5.12,5.12,0,0,1,3.14,4.91,5.31,5.31,0,0,1-.82,3,5.1,5.1,0,0,1-2.32,1.93,8.62,8.62,0,0,1-3.55.67h-3.1V41h-3.57V25.6h6.67A8.61,8.61,0,0,1,295.14,26.28Zm-1.31,6.88a2.75,2.75,0,0,0,0-4,3.74,3.74,0,0,0-2.44-.7h-2.9v5.35h2.9A3.74,3.74,0,0,0,293.83,33.16Z"/>
      <path class="cls-3" d="M311,26.28a5.54,5.54,0,0,1,2.32,7.87A5.21,5.21,0,0,1,311,36.08a8.67,8.67,0,0,1-3.56.67h-3.1V41h-3.56V25.6h6.66A8.66,8.66,0,0,1,311,26.28Zm-1.31,6.88a2.4,2.4,0,0,0,.83-2,2.42,2.42,0,0,0-.83-2,3.75,3.75,0,0,0-2.44-.7h-2.91v5.35h2.91A3.75,3.75,0,0,0,309.72,33.16Z"/>
    </g>
  </g>
</svg>
