<svg id="Component_1_1" data-name="Component 1 1" xmlns="http://www.w3.org/2000/svg" width="229" height="41" viewBox="0 0 229 41">
  <defs>
    <style>
      .cls-1 {
        fill: #7160a7;
      }

      .cls-2 {
        isolation: isolate;
      }

      .cls-3 {
        fill: #fff;
      }
    </style>
  </defs>
  <path id="Rectangle_5" data-name="Rectangle 5" class="cls-1" d="M20.5,0h188A20.5,20.5,0,0,1,229,20.5h0A20.5,20.5,0,0,1,208.5,41H20.5A20.5,20.5,0,0,1,0,20.5H0A20.5,20.5,0,0,1,20.5,0Z"/>
  <g id="DOWNLOAD_THE_APP" data-name="DOWNLOAD THE APP" class="cls-2">
    <g class="cls-2">
      <path class="cls-3" d="M29.25,15.5H34a6.8,6.8,0,0,1,3,.65,5,5,0,0,1,2,1.84,5.58,5.58,0,0,1,0,5.52,5,5,0,0,1-2,1.84A6.8,6.8,0,0,1,34,26H29.25ZM33.9,24a3.57,3.57,0,0,0,2.51-.87,3.13,3.13,0,0,0,.94-2.38,3.13,3.13,0,0,0-.94-2.38,3.57,3.57,0,0,0-2.51-.87H31.67V24Z"/>
      <path class="cls-3" d="M43.77,25.47a5.18,5.18,0,0,1-2.05-1.94,5.53,5.53,0,0,1,0-5.56A5.18,5.18,0,0,1,43.77,16a6,6,0,0,1,2.95-.71,6,6,0,0,1,2.94.71,5.35,5.35,0,0,1,0,9.44,6,6,0,0,1-2.94.71A6,6,0,0,1,43.77,25.47Zm4.63-1.79a3.07,3.07,0,0,0,1.18-1.19,3.81,3.81,0,0,0,0-3.48,3.07,3.07,0,0,0-1.18-1.19,3.5,3.5,0,0,0-3.36,0A3.07,3.07,0,0,0,43.86,19a3.74,3.74,0,0,0,0,3.48A3.07,3.07,0,0,0,45,23.68a3.5,3.5,0,0,0,3.36,0Z"/>
      <path class="cls-3" d="M69.82,15.5,66.38,26H63.77l-2.31-7.11L59.08,26h-2.6L53,15.5h2.52l2.37,7.38L60.4,15.5h2.25l2.4,7.44,2.44-7.44Z"/>
      <path class="cls-3" d="M80.8,15.5V26h-2l-5.23-6.38V26h-2.4V15.5h2l5.22,6.38V15.5Z"/>
      <path class="cls-3" d="M83.29,15.5h2.43V24H91v2H83.29Z"/>
      <path class="cls-3" d="M94.31,25.47a5.2,5.2,0,0,1-2.06-1.94,5.59,5.59,0,0,1,0-5.56A5.2,5.2,0,0,1,94.31,16a6.44,6.44,0,0,1,5.88,0,5.34,5.34,0,0,1,0,9.44,6.44,6.44,0,0,1-5.88,0Zm4.62-1.79a3,3,0,0,0,1.18-1.19,3.74,3.74,0,0,0,0-3.48,3,3,0,0,0-1.18-1.19,3.5,3.5,0,0,0-3.36,0A3,3,0,0,0,94.4,19a3.74,3.74,0,0,0,0,3.48,3,3,0,0,0,1.17,1.19,3.5,3.5,0,0,0,3.36,0Z"/>
      <path class="cls-3" d="M111.59,23.75h-4.87L105.79,26H103.3L108,15.5h2.4L115.07,26h-2.55Zm-.76-1.84-1.67-4-1.66,4Z"/>
      <path class="cls-3" d="M116.17,15.5h4.77a6.74,6.74,0,0,1,3,.65A4.86,4.86,0,0,1,126,18a5.13,5.13,0,0,1,.73,2.76,5.13,5.13,0,0,1-.73,2.76,4.86,4.86,0,0,1-2,1.84,6.74,6.74,0,0,1-3,.65h-4.77Zm4.65,8.5a3.53,3.53,0,0,0,2.51-.87,3.1,3.1,0,0,0,.94-2.38,3.1,3.1,0,0,0-.94-2.38,3.53,3.53,0,0,0-2.51-.87H118.6V24Z"/>
      <path class="cls-3" d="M135,17.48h-3.36v-2h9.15v2h-3.36V26H135Z"/>
      <path class="cls-3" d="M151.7,15.5V26h-2.43V21.7H144.5V26h-2.43V15.5h2.43v4.14h4.77V15.5Z"/>
      <path class="cls-3" d="M162.32,24.05V26h-8.13V15.5h7.94v1.95h-5.52v2.28h4.87v1.89h-4.87v2.43Z"/>
      <path class="cls-3" d="M175.42,23.75h-4.88L169.61,26h-2.49l4.68-10.5h2.4L178.9,26h-2.55Zm-.77-1.84-1.66-4-1.67,4Z"/>
      <path class="cls-3" d="M187,16a3.58,3.58,0,0,1,1.58,1.33,3.62,3.62,0,0,1,.56,2,3.67,3.67,0,0,1-.56,2A3.56,3.56,0,0,1,187,22.65a6,6,0,0,1-2.42.46h-2.12V26H180V15.5h4.55A6,6,0,0,1,187,16Zm-.89,4.69a1.63,1.63,0,0,0,.57-1.34,1.68,1.68,0,0,0-.57-1.36,2.6,2.6,0,0,0-1.67-.47h-2v3.64h2A2.54,2.54,0,0,0,186.07,20.65Z"/>
      <path class="cls-3" d="M197.79,16a3.58,3.58,0,0,1,1.58,1.33,3.62,3.62,0,0,1,.56,2,3.67,3.67,0,0,1-.56,2,3.56,3.56,0,0,1-1.58,1.32,6,6,0,0,1-2.42.46h-2.12V26h-2.43V15.5h4.55A6,6,0,0,1,197.79,16Zm-.89,4.69a1.63,1.63,0,0,0,.57-1.34A1.68,1.68,0,0,0,196.9,18a2.6,2.6,0,0,0-1.67-.47h-2v3.64h2A2.54,2.54,0,0,0,196.9,20.65Z"/>
    </g>
  </g>
</svg>
